<svg id="Capa_1" data-name="Capa 1" xmlns="http://www.w3.org/2000/svg" viewBox="0 0 323 329"><title>correo</title><path d="M152.39,16.41H171c5.07.66,10.17,1.15,15.21,2a146.19,146.19,0,0,1,74,35.35c25.93,23.07,42.14,51.73,48.24,86,1,5.42,1.53,10.9,2.28,16.36v18.62c-.43,3.55-.81,7.1-1.31,10.64-4.62,32.28-17.85,60.56-40.9,83.63C230.24,307.27,184,321.52,131,311.05c-36.23-7.15-65.62-26.33-87.85-55.74-25.73-34-35.08-72.5-28.28-114.62,5-30.75,18.75-57.26,40.56-79.47A146.08,146.08,0,0,1,136,18.7C141.45,17.75,146.94,17.16,152.39,16.41Zm9.26,217.79q34.32,0,68.65,0c17.17,0,28.59-11.49,28.6-28.66q0-40.14,0-80.29c0-17.15-11.44-28.6-28.64-28.61q-68.5,0-137,0a35.16,35.16,0,0,0-6.08.35,27,27,0,0,0-22.64,27c-.07,27.05.29,54.11-.14,81.15-.26,16.73,12.61,29.53,29.2,29.18C116.27,233.84,139,234.2,161.65,234.2Z"/><path d="M179,162.31l56,57.57H88.41l56.16-57.74L156,170c4.88,3.34,6.6,3.33,11.54,0l10.55-7.22A9.26,9.26,0,0,1,179,162.31Z"/><path d="M95.26,110.7H228.65a23.16,23.16,0,0,1-1.84,1.61q-31.51,21.63-63.05,43.24c-1.15.78-2,1.46-3.56.4Q128,133.76,95.73,111.7l-.7-.48Z"/><path d="M132.89,154.11,79.26,209.25l-.79-.14c0-15.22-.1-30.43,0-45.64s-.61-30.25.5-45.33l1.15-.17Z"/><path d="M190.54,154.12l53.17-36.45c.46,2.09,1.15,3.8,1.16,5.52q.09,42.33,0,84.65c0,.37-.09.75-.25,1.9Z"/></svg>