<svg xmlns="http://www.w3.org/2000/svg" xmlns:xlink="http://www.w3.org/1999/xlink" viewBox="0 0 1202.67 458.71"><defs><style>.cls-1{isolation:isolate;}.cls-2,.cls-7{fill:#fff;}.cls-10,.cls-3,.cls-4,.cls-5,.cls-6,.cls-8,.cls-9{mix-blend-mode:multiply;}.cls-3{fill:url(#Degradado_sin_nombre_25);}.cls-4{fill:url(#Degradado_sin_nombre_25-2);}.cls-5{fill:url(#Degradado_sin_nombre_25-3);}.cls-6{fill:url(#Degradado_sin_nombre_25-4);}.cls-10,.cls-7,.cls-8,.cls-9{fill-rule:evenodd;}.cls-8{fill:url(#Degradado_sin_nombre_2);}.cls-9{fill:url(#Degradado_sin_nombre_2-2);}.cls-10{fill:url(#Degradado_sin_nombre_2-3);}</style><linearGradient id="Degradado_sin_nombre_25" x1="889.68" y1="255.37" x2="888.15" y2="170.72" gradientUnits="userSpaceOnUse"><stop offset="0" stop-color="#8c8c8c"/><stop offset="1" stop-color="#fff" stop-opacity="0"/></linearGradient><linearGradient id="Degradado_sin_nombre_25-2" x1="258.3" y1="-492.72" x2="277.42" y2="-451.46" gradientTransform="translate(-114.12 439.11) rotate(32.1)" xlink:href="#Degradado_sin_nombre_25"/><linearGradient id="Degradado_sin_nombre_25-3" x1="-696.88" y1="-1446.32" x2="-677.76" y2="-1405.06" gradientTransform="translate(-775.1 817.48) rotate(90)" xlink:href="#Degradado_sin_nombre_25"/><linearGradient id="Degradado_sin_nombre_25-4" x1="-1067.9" y1="1482.13" x2="-1048.79" y2="1523.39" gradientTransform="translate(-815.27 -777.35) rotate(-90)" xlink:href="#Degradado_sin_nombre_25"/><linearGradient id="Degradado_sin_nombre_2" x1="130.26" y1="116.67" x2="270.32" y2="116.67" gradientUnits="userSpaceOnUse"><stop offset="0.56" stop-color="#fff" stop-opacity="0"/><stop offset="0.62" stop-color="#f9f9f9" stop-opacity="0.05"/><stop offset="0.7" stop-color="#e9e9e9" stop-opacity="0.19"/><stop offset="0.81" stop-color="#cecece" stop-opacity="0.43"/><stop offset="0.92" stop-color="#a9a9a9" stop-opacity="0.75"/><stop offset="1" stop-color="#8c8c8c"/></linearGradient><linearGradient id="Degradado_sin_nombre_2-2" x1="81.71" y1="203.57" x2="221.78" y2="203.57" xlink:href="#Degradado_sin_nombre_2"/><linearGradient id="Degradado_sin_nombre_2-3" x1="130.26" y1="291.15" x2="270.32" y2="291.15" xlink:href="#Degradado_sin_nombre_2"/></defs><title>ecomBlanco</title><g class="cls-1"><g id="Capa_1" data-name="Capa 1"><path class="cls-2" d="M437.25,325a118.72,118.72,0,0,1-84.58-35A122.15,122.15,0,0,1,327.25,252a119.77,119.77,0,0,1,0-92.88,122.55,122.55,0,0,1,25.42-37.94,118.77,118.77,0,0,1,84.58-35,114.06,114.06,0,0,1,52.11,12.19A124.27,124.27,0,0,1,529.7,130.7c3.69,5.49,5.37,10.66,5.06,15.68,0,7.59-3.13,14.52-9.08,20.18a31,31,0,0,1-20.85,8.91c-8.32-.28-14.53-2.68-18.34-7.13a66.28,66.28,0,0,0-21.63-17.81,59.29,59.29,0,0,0-27.61-6.6,60.5,60.5,0,0,0-23.83,4.8A62.44,62.44,0,0,0,393.67,162a65.82,65.82,0,0,0-13.49,19.65,56.59,56.59,0,0,0-4.93,23.22,62.62,62.62,0,0,0,4.8,24.41,61.51,61.51,0,0,0,57.2,38,59.31,59.31,0,0,0,27.61-6.59A65.7,65.7,0,0,0,486.36,243C491.3,238.31,497.28,236,505,236a28.88,28.88,0,0,1,21.12,8.64c5.74,5.74,8.64,12.25,8.64,19.34,0,6.61-1.69,12.12-5,16.36a124.34,124.34,0,0,1-40.4,32.39A114,114,0,0,1,437.25,325Z"/><path class="cls-2" d="M669.22,325a118.82,118.82,0,0,1-84.6-35A122.85,122.85,0,0,1,559.2,252a119.89,119.89,0,0,1,0-92.88,123.25,123.25,0,0,1,25.42-37.94,118.86,118.86,0,0,1,84.6-35,116.68,116.68,0,0,1,46.44,9.37,119.1,119.1,0,0,1,37.79,25.63,122.69,122.69,0,0,1,25.41,37.94,119.65,119.65,0,0,1,0,92.88A122.3,122.3,0,0,1,753.45,290a119.07,119.07,0,0,1-37.79,25.64A116.61,116.61,0,0,1,669.22,325Zm0-181a61.45,61.45,0,0,0-24.2,4.8,62.21,62.21,0,0,0-33,32.86,60.2,60.2,0,0,0-4.78,24A61.21,61.21,0,0,0,612,229.77a61.81,61.81,0,0,0,33,33,61.31,61.31,0,0,0,24.2,4.8,60.11,60.11,0,0,0,24-4.79,63.11,63.11,0,0,0,19.59-13.28,62.16,62.16,0,0,0,13.26-19.75,61.08,61.08,0,0,0,4.8-24.19,60.11,60.11,0,0,0-4.79-24,62.61,62.61,0,0,0-32.87-32.86A60,60,0,0,0,669.22,143.93Z"/><path class="cls-2" d="M1092.53,103a3,3,0,0,1,3-3h9.58c3.52,0,6.24,1,8,2.8a8.68,8.68,0,0,1,2.37,6.32v.08a8.43,8.43,0,0,1-5.52,8.4l4.22,5.13a3.54,3.54,0,0,1,1,2.33,2.83,2.83,0,0,1-2.88,2.8,3.62,3.62,0,0,1-3-1.58l-5.92-7.5h-4.86v6a3,3,0,1,1-6.07,0Zm12.23,10.38c3,0,4.65-1.58,4.65-3.91v-.08c0-2.6-1.81-3.94-4.77-3.94h-6v7.93Z"/><path class="cls-2" d="M1104.05,141.52a27.66,27.66,0,1,1,27.66-27.66A27.69,27.69,0,0,1,1104.05,141.52Zm0-50.4a22.74,22.74,0,1,0,22.74,22.74A22.77,22.77,0,0,0,1104.05,91.12Z"/><path class="cls-2" d="M100.1,365.55H87.86v-2.24h27v2.24H102.57v31.78H100.1Z"/><path class="cls-2" d="M149.25,395.1v2.23H125.78v-34h22.74v2.24H128.26V379h18.12v2.19H128.26v14Z"/><path class="cls-2" d="M159.65,380.32c0-9.91,7.53-17.25,17.64-17.25,4.82,0,9.14,1.56,12.1,4.71l-1.56,1.61a14.2,14.2,0,0,0-10.45-4c-8.69,0-15.25,6.42-15.25,15s6.56,15,15.25,15a14.28,14.28,0,0,0,10.45-4.08l1.56,1.6c-3,3.16-7.28,4.76-12.1,4.76C167.18,397.57,159.65,390.23,159.65,380.32Z"/><path class="cls-2" d="M230.21,363.31v34h-2L205,367.78v29.55h-2.48v-34h2.09l23.13,29.55V363.31Z"/><path class="cls-2" d="M243.64,380.32c0-9.86,7.53-17.25,17.68-17.25s17.7,7.34,17.7,17.25-7.59,17.25-17.7,17.25S243.64,390.18,243.64,380.32Zm32.84,0c0-8.6-6.5-15-15.16-15s-15.2,6.37-15.2,15,6.51,15,15.2,15S276.48,388.92,276.48,380.32Z"/><path class="cls-2" d="M292.42,363.31h2.49V395.1h19.58v2.23H292.42Z"/><path class="cls-2" d="M321.75,380.32c0-9.86,7.53-17.25,17.68-17.25s17.7,7.34,17.7,17.25-7.59,17.25-17.7,17.25S321.75,390.18,321.75,380.32Zm32.84,0c0-8.6-6.5-15-15.16-15s-15.21,6.37-15.21,15,6.52,15,15.21,15S354.59,388.92,354.59,380.32Z"/><path class="cls-2" d="M394.83,380.47h2.38V393.2a17.52,17.52,0,0,1-12.14,4.37c-10.26,0-17.79-7.34-17.79-17.25s7.53-17.25,17.84-17.25c4.9,0,9.22,1.56,12.24,4.67l-1.56,1.65a14.3,14.3,0,0,0-10.64-4c-8.84,0-15.4,6.42-15.4,15s6.56,15,15.4,15a14.9,14.9,0,0,0,9.67-3.11Z"/><path class="cls-2" d="M418.17,354.81h3.5L414,360.54h-2.62Zm-5.25,8.5h2.48v34h-2.48Z"/><path class="cls-2" d="M453.14,387.76H433.41l-4.33,9.57h-2.66l15.64-34h2.48l15.64,34h-2.66Zm-.92-2.09L443.28,366l-8.9,19.64Z"/><path class="cls-2" d="M499,385.62v11.71h-2.48V385.62l-13.7-22.31h2.72l12.29,20,12.3-20h2.58Z"/><path class="cls-2" d="M537.78,380.32c0-9.91,7.53-17.25,17.63-17.25,4.82,0,9.14,1.56,12.1,4.71L566,369.39a14.22,14.22,0,0,0-10.45-4c-8.7,0-15.26,6.42-15.26,15s6.56,15,15.26,15A14.3,14.3,0,0,0,566,391.21l1.55,1.6c-3,3.16-7.28,4.76-12.1,4.76C545.31,397.57,537.78,390.23,537.78,380.32Z"/><path class="cls-2" d="M576.66,380.32c0-9.86,7.53-17.25,17.69-17.25S612,370.41,612,380.32s-7.59,17.25-17.69,17.25S576.66,390.18,576.66,380.32Zm32.85,0c0-8.6-6.51-15-15.16-15s-15.21,6.37-15.21,15,6.51,15,15.21,15S609.51,388.92,609.51,380.32Z"/><path class="cls-2" d="M657.62,397.33l0-29.11-14.24,24.59h-1.22l-14.24-24.49v29h-2.42v-34h2.09l15.21,26.29L658,363.31h2l0,34Z"/><path class="cls-2" d="M676.42,382.9V363.31h2.48V382.8c0,8.5,4.08,12.49,11.18,12.49s11.12-4,11.12-12.49V363.31h2.49V382.9c0,9.72-5.21,14.67-13.66,14.67S676.42,392.62,676.42,382.9Z"/><path class="cls-2" d="M747.76,363.31v34h-2l-23.17-29.55v29.55h-2.49v-34h2.1l23.12,29.55V363.31Z"/><path class="cls-2" d="M764.44,363.31h2.48v34h-2.48Z"/><path class="cls-2" d="M780.36,380.32c0-9.91,7.52-17.25,17.63-17.25,4.82,0,9.14,1.56,12.1,4.71l-1.56,1.61a14.2,14.2,0,0,0-10.44-4c-8.7,0-15.26,6.42-15.26,15s6.56,15,15.26,15a14.27,14.27,0,0,0,10.44-4.08l1.56,1.6c-3,3.16-7.28,4.76-12.1,4.76C787.88,397.57,780.36,390.23,780.36,380.32Z"/><path class="cls-2" d="M843.34,387.76H823.62l-4.33,9.57h-2.67l15.65-34h2.47l15.65,34h-2.67Zm-.92-2.09L833.48,366l-8.89,19.64Z"/><path class="cls-2" d="M857.64,380.32c0-9.91,7.53-17.25,17.64-17.25,4.81,0,9.14,1.56,12.09,4.71l-1.55,1.61a14.21,14.21,0,0,0-10.44-4c-8.7,0-15.27,6.42-15.27,15s6.57,15,15.27,15a14.29,14.29,0,0,0,10.44-4.08l1.55,1.6c-3,3.16-7.28,4.76-12.09,4.76C865.17,397.57,857.64,390.23,857.64,380.32Z"/><path class="cls-2" d="M900.51,363.31H903v34h-2.48Z"/><path class="cls-2" d="M916.43,380.32c0-9.86,7.52-17.25,17.68-17.25s17.69,7.34,17.69,17.25-7.58,17.25-17.69,17.25S916.43,390.18,916.43,380.32Zm32.84,0c0-8.6-6.5-15-15.16-15s-15.21,6.37-15.21,15,6.51,15,15.21,15S949.27,388.92,949.27,380.32Z"/><path class="cls-2" d="M992.91,363.31v34h-2L967.7,367.78v29.55h-2.48v-34h2.09l23.13,29.55V363.31Z"/><path class="cls-2" d="M1033.07,395.1v2.23h-23.48v-34h22.75v2.24h-20.26V379h18.12v2.19h-18.12v14Z"/><path class="cls-2" d="M1043.47,393l1.12-1.84c2.33,2.43,6.65,4.27,11.22,4.27,6.81,0,9.82-3,9.82-6.65,0-10.21-21.23-4.08-21.23-16.62,0-4.81,3.69-9,12-9a18.3,18.3,0,0,1,10.25,3.06l-.92,2a16.77,16.77,0,0,0-9.33-2.87c-6.61,0-9.58,3.06-9.58,6.8,0,10.21,21.24,4.18,21.24,16.52,0,4.81-3.84,9-12.25,9C1050.81,397.57,1046,395.67,1043.47,393Z"/><g id="TpfD1D"><path class="cls-2" d="M933.89,185.48c4.57-11.84,23.81-62.59,29.07-76.59s18.15-22.72,33.4-22.39c14.46.31,26.58,9.36,31.2,23.57L1074.2,280c2.87,10.47,2,20.56-3.82,29.83-14.18,22.69-43.17,18.09-55.45-1.92-3.31-5.39-25.5-87.37-26-89.12-1.56,4-15.54,40.6-21.41,55.46-3.94,10-9.79,18.53-19.89,23.26-13.3,6.23-29.78,1.76-40.09-10.45-6.43-7.6-28.65-67.26-29.48-69.1-2.85,10.34-17.4,63.3-22.13,80.19-4,14.46-16.19,25.07-29.65,26.57C806.18,327,793.66,310.94,791.45,297a41.11,41.11,0,0,1,1.17-17.62c10.17-36.85,40.28-150,46.7-169.37C844,95.94,855.48,86.93,869.6,86.24c14.63-.71,27,6.67,32.85,20.62C910.53,126.25,933.89,185.48,933.89,185.48Z"/></g><path class="cls-3" d="M903.68,113.73l30.21,71.75L912.1,237.55a14.23,14.23,0,0,1-26.62-.31L841.78,122Z"/><path class="cls-4" d="M364,162.34h0a28.36,28.36,0,0,1,12.77,30.19c-3.44,15.22-3.13,40.57,21.39,61L338.45,273S308.34,233.13,321,179.47C325.41,160.6,347.54,152,364,162.34Z"/><path class="cls-5" d="M667,120.21h0a28.38,28.38,0,0,1-18.8,26.86c-14.71,5.17-36,18.9-40.33,50.55l-48.18-40.21s17.78-46.7,69.95-64.51C648,86.63,667,100.82,667,120.21Z"/><path class="cls-6" d="M671.06,291h0a28.39,28.39,0,0,1,18.79-26.87c14.72-5.17,36-18.9,40.34-50.55l48.18,40.21s-17.79,46.7-70,64.52C690.07,324.53,671.06,310.34,671.06,291Z"/><path class="cls-7" d="M111.22,146.09H279a29.42,29.42,0,1,0,0-58.84H111.22a29.42,29.42,0,1,0,0,58.84ZM279,262.41H111.22c-16.23,0-29.51,12.51-29.51,28.74S95,319.88,111.22,319.88H279c16.23,0,29.51-12.5,29.51-28.73S295.26,262.41,279,262.41ZM111.22,232.3H240.81c16.23,0,29.51-12.5,29.51-28.73S257,174.83,240.81,174.83H111.22c-16.23,0-29.51,12.51-29.51,28.74S95,232.3,111.22,232.3Z"/><path class="cls-8" d="M159.77,146.09h81a29.42,29.42,0,1,0,0-58.84h-81a29.42,29.42,0,1,0,0,58.84Z"/><path class="cls-9" d="M221.78,203.57c0-16.23-13.28-28.74-29.51-28.74H111.22c-16.23,0-29.51,12.51-29.51,28.74S95,232.3,111.22,232.3h81.05C208.5,232.3,221.78,219.8,221.78,203.57Z"/><path class="cls-10" d="M240.81,262.41h-81c-16.24,0-29.51,12.51-29.51,28.74s13.27,28.73,29.51,28.73h81c16.23,0,29.51-12.5,29.51-28.73S257,262.41,240.81,262.41Z"/></g></g></svg>