<svg xmlns="http://www.w3.org/2000/svg" xmlns:xlink="http://www.w3.org/1999/xlink" viewBox="0 0 807 338"><defs><style>.cls-1{isolation:isolate;}.cls-2{fill:#412068;}.cls-3{fill:#5d5d5d;}.cls-10,.cls-11,.cls-4,.cls-5,.cls-6,.cls-7,.cls-9{mix-blend-mode:multiply;}.cls-4{fill:url(#Degradado_sin_nombre_25);}.cls-5{fill:url(#Degradado_sin_nombre_25-2);}.cls-6{fill:url(#Degradado_sin_nombre_25-3);}.cls-7{fill:url(#Degradado_sin_nombre_25-4);}.cls-10,.cls-11,.cls-8,.cls-9{fill-rule:evenodd;}.cls-8{fill:url(#Degradado_sin_nombre_22);}.cls-9{fill:url(#Degradado_sin_nombre_2);}.cls-10{fill:url(#Degradado_sin_nombre_2-2);}.cls-11{fill:url(#Degradado_sin_nombre_2-3);}</style><linearGradient id="Degradado_sin_nombre_25" x1="611.78" y1="178.86" x2="610.67" y2="117" gradientUnits="userSpaceOnUse"><stop offset="0" stop-color="#8c8c8c"/><stop offset="1" stop-color="#fff" stop-opacity="0"/></linearGradient><linearGradient id="Degradado_sin_nombre_25-2" x1="-182.36" y1="199.82" x2="-168.4" y2="229.98" gradientTransform="translate(490.16 36.07) rotate(32.1)" xlink:href="#Degradado_sin_nombre_25"/><linearGradient id="Degradado_sin_nombre_25-3" x1="-583.18" y1="623.97" x2="-569.21" y2="654.13" gradientTransform="translate(1076.12 663.55) rotate(90)" xlink:href="#Degradado_sin_nombre_25"/><linearGradient id="Degradado_sin_nombre_25-4" x1="869.3" y1="1110.29" x2="883.27" y2="1140.44" gradientTransform="translate(-661.34 1073.87) rotate(-90)" xlink:href="#Degradado_sin_nombre_25"/><linearGradient id="Degradado_sin_nombre_22" x1="20.58" y1="63.62" x2="211.77" y2="240.75" gradientUnits="userSpaceOnUse"><stop offset="0" stop-color="#fd2d29"/><stop offset="1" stop-color="#0026a2"/></linearGradient><linearGradient id="Degradado_sin_nombre_2" x1="56.82" y1="77.5" x2="159.18" y2="77.5" gradientUnits="userSpaceOnUse"><stop offset="0.56" stop-color="#fff" stop-opacity="0"/><stop offset="0.62" stop-color="#f9f9f9" stop-opacity="0.05"/><stop offset="0.7" stop-color="#e9e9e9" stop-opacity="0.19"/><stop offset="0.81" stop-color="#cecece" stop-opacity="0.43"/><stop offset="0.92" stop-color="#a9a9a9" stop-opacity="0.75"/><stop offset="1" stop-color="#8c8c8c"/></linearGradient><linearGradient id="Degradado_sin_nombre_2-2" x1="21.34" y1="141" x2="123.7" y2="141" xlink:href="#Degradado_sin_nombre_2"/><linearGradient id="Degradado_sin_nombre_2-3" x1="56.82" y1="205" x2="159.18" y2="205" xlink:href="#Degradado_sin_nombre_2"/></defs><title>ecom</title><g class="cls-1"><g id="Capa_1" data-name="Capa 1"><path class="cls-2" d="M-150.95-312.64h20.19a17.26,17.26,0,0,0,2.43.52c25.15,1.88,48.69,9.1,70.14,22.3C-16.5-264.15,9.18-227.24,18.17-179c1.09,5.86,1.67,11.82,2.48,17.74V-141c-.18.81-.41,1.61-.53,2.43-1.09,7.37-1.77,14.83-3.29,22.1C1.85-44.81-63.43,9.11-136.63,10.31c-41.54.69-78.55-12-109.75-39.47-41.51-36.61-59.88-83.08-55.08-138.17,3.06-35.1,17.1-65.87,40.79-92,24.9-27.45,55.69-44.55,92.3-50.9C-162.59-311.2-156.75-311.84-150.95-312.64Zm5.75,90.09,0,1.44c-11.56,0-23.13-.32-34.67.09s-23.08,1.3-34.57,2.45c-12.74,1.27-21.38,8.79-23.51,21.36a292.52,292.52,0,0,0-3.4,33.18,263,263,0,0,0,2.8,56.89c2.18,13.3,9.44,21,22.71,23a295.41,295.41,0,0,0,30.75,2.63C-147.19-79.88-109.27-80-71.38-83c17.95-1.45,26.55-10.26,28.62-25.82,3.72-28.08,4.14-56.19,0-84.22-2.34-15.77-9.35-22.72-23.46-25.27a53.11,53.11,0,0,0-6.87-.88Q-109.14-220.95-145.2-222.55Z"/><path class="cls-3" d="M281.16,229.71a86.8,86.8,0,0,1-61.81-25.58,89.49,89.49,0,0,1-18.57-27.72,87.51,87.51,0,0,1,0-67.88,89.49,89.49,0,0,1,18.57-27.72,86.8,86.8,0,0,1,61.81-25.58,83.41,83.41,0,0,1,38.09,8.91,90.84,90.84,0,0,1,29.47,23.61c2.7,4,3.93,7.79,3.7,11.46A20,20,0,0,1,345.78,114a22.7,22.7,0,0,1-15.23,6.51c-6.08-.21-10.62-2-13.4-5.21a48.5,48.5,0,0,0-15.81-13,43.32,43.32,0,0,0-20.18-4.82,44.1,44.1,0,0,0-17.41,3.51,45.34,45.34,0,0,0-14.43,9.69A47.84,47.84,0,0,0,239.46,125a41.33,41.33,0,0,0-3.6,17A45.13,45.13,0,0,0,263.48,184a44.88,44.88,0,0,0,17.68,3.5,43.26,43.26,0,0,0,20.18-4.82,47.74,47.74,0,0,0,15.71-12.91c3.61-3.4,8-5.06,13.63-5.06a21.08,21.08,0,0,1,15.44,6.32c4.19,4.19,6.31,8.94,6.31,14.12,0,4.84-1.23,8.87-3.66,12a90.86,90.86,0,0,1-29.52,23.67A83.22,83.22,0,0,1,281.16,229.71Z"/><path class="cls-3" d="M450.68,229.71a86.8,86.8,0,0,1-61.82-25.58,89.69,89.69,0,0,1-18.58-27.72,87.62,87.62,0,0,1,0-67.88,90,90,0,0,1,18.58-27.72,86.8,86.8,0,0,1,61.82-25.58,85.2,85.2,0,0,1,33.94,6.85,86.93,86.93,0,0,1,27.62,18.73,89.84,89.84,0,0,1,18.57,27.72,87.51,87.51,0,0,1,0,67.88,89.84,89.84,0,0,1-18.57,27.72,87.09,87.09,0,0,1-27.62,18.73A85.17,85.17,0,0,1,450.68,229.71Zm0-132.29A44.78,44.78,0,0,0,433,100.93a45.34,45.34,0,0,0-14.43,9.69,46.16,46.16,0,0,0-9.71,14.32,44.1,44.1,0,0,0-3.49,17.53,44.84,44.84,0,0,0,3.5,17.68A45.19,45.19,0,0,0,433,184.28a44.84,44.84,0,0,0,17.68,3.5,44,44,0,0,0,17.54-3.49,46,46,0,0,0,14.31-9.71,45.43,45.43,0,0,0,9.7-14.43,44.84,44.84,0,0,0,3.5-17.68,44,44,0,0,0-3.5-17.54,45.81,45.81,0,0,0-24-24A43.9,43.9,0,0,0,450.68,97.42Z"/><path class="cls-3" d="M760,67.49a2.2,2.2,0,0,1,2.22-2.22h7a8.06,8.06,0,0,1,5.88,2,6.33,6.33,0,0,1,1.73,4.62v0a6.17,6.17,0,0,1-4,6.15l3.08,3.74a2.61,2.61,0,0,1,.72,1.7,2.07,2.07,0,0,1-2.11,2.05,2.67,2.67,0,0,1-2.19-1.15L768,79h-3.55V83.4a2.22,2.22,0,0,1-4.44,0ZM769,75.07c2.16,0,3.4-1.15,3.4-2.86v0c0-1.91-1.32-2.89-3.48-2.89h-4.42v5.8Z"/><path class="cls-3" d="M768.44,95.66a20.22,20.22,0,1,1,20.22-20.22A20.23,20.23,0,0,1,768.44,95.66Zm0-36.84a16.63,16.63,0,1,0,16.62,16.62A16.64,16.64,0,0,0,768.44,58.82Z"/><path class="cls-3" d="M34.78,259.37H25.84v-1.63h19.7v1.63H36.59V282.6H34.78Z"/><path class="cls-3" d="M70.7,281v1.64H53.55V257.74H70.17v1.63H55.36v9.8H68.6v1.6H55.36V281Z"/><path class="cls-3" d="M78.3,270.17c0-7.25,5.5-12.61,12.89-12.61A11.86,11.86,0,0,1,100,261l-1.13,1.18a10.39,10.39,0,0,0-7.64-2.95,10.94,10.94,0,1,0,0,21.87,10.45,10.45,0,0,0,7.64-3l1.13,1.17a11.85,11.85,0,0,1-8.84,3.48C83.8,282.77,78.3,277.41,78.3,270.17Z"/><path class="cls-3" d="M129.87,257.74V282.6h-1.49L111.44,261v21.6h-1.81V257.74h1.53l16.9,21.59V257.74Z"/><path class="cls-3" d="M139.68,270.17c0-7.21,5.5-12.61,12.92-12.61s12.93,5.36,12.93,12.61-5.54,12.6-12.93,12.6S139.68,277.37,139.68,270.17Zm24,0A11.1,11.1,0,1,0,152.6,281.1,10.73,10.73,0,0,0,163.68,270.17Z"/><path class="cls-3" d="M175.33,257.74h1.81V281h14.31v1.64H175.33Z"/><path class="cls-3" d="M196.76,270.17c0-7.21,5.5-12.61,12.92-12.61s12.93,5.36,12.93,12.61-5.54,12.6-12.93,12.6S196.76,277.37,196.76,270.17Zm24,0a11.1,11.1,0,1,0-11.08,10.93A10.73,10.73,0,0,0,220.76,270.17Z"/><path class="cls-3" d="M250.17,270.27h1.74v9.31a12.8,12.8,0,0,1-8.88,3.19c-7.5,0-13-5.36-13-12.6s5.5-12.61,13-12.61A12.15,12.15,0,0,1,252,261l-1.14,1.21a10.46,10.46,0,0,0-7.77-2.95c-6.46,0-11.26,4.69-11.26,10.94s4.8,10.93,11.26,10.93a10.92,10.92,0,0,0,7.07-2.27Z"/><path class="cls-3" d="M267.22,251.52h2.56l-5.58,4.19h-1.92Zm-3.84,6.22h1.82V282.6h-1.82Z"/><path class="cls-3" d="M292.77,275.6H278.36l-3.17,7h-1.94l11.43-24.86h1.81l11.43,24.86H296Zm-.67-1.53-6.53-14.34-6.5,14.34Z"/><path class="cls-3" d="M326.29,274v8.56h-1.81V274l-10-16.3h2l9,14.63,9-14.63h1.89Z"/><path class="cls-3" d="M354.63,270.17c0-7.25,5.5-12.61,12.88-12.61a11.9,11.9,0,0,1,8.85,3.44l-1.14,1.18a10.39,10.39,0,0,0-7.64-2.95,10.94,10.94,0,1,0,0,21.87,10.45,10.45,0,0,0,7.64-3l1.14,1.17a11.89,11.89,0,0,1-8.85,3.48C360.13,282.77,354.63,277.41,354.63,270.17Z"/><path class="cls-3" d="M383,270.17c0-7.21,5.5-12.61,12.92-12.61s12.93,5.36,12.93,12.61-5.54,12.6-12.93,12.6S383,277.37,383,270.17Zm24,0A11.1,11.1,0,1,0,396,281.1,10.73,10.73,0,0,0,407,270.17Z"/><path class="cls-3" d="M442.2,282.6l0-21.28-10.41,18h-.89l-10.4-17.89v21.2h-1.78V257.74h1.53L431.34,277l11.11-19.21h1.49l0,24.86Z"/><path class="cls-3" d="M455.94,272.05V257.74h1.82V272c0,6.21,3,9.12,8.17,9.12s8.12-2.91,8.12-9.12V257.74h1.82v14.31c0,7.1-3.81,10.72-10,10.72S455.94,279.15,455.94,272.05Z"/><path class="cls-3" d="M508.07,257.74V282.6h-1.49L489.65,261v21.6h-1.82V257.74h1.54l16.9,21.59V257.74Z"/><path class="cls-3" d="M520.26,257.74h1.82V282.6h-1.82Z"/><path class="cls-3" d="M531.9,270.17c0-7.25,5.5-12.61,12.88-12.61a11.86,11.86,0,0,1,8.84,3.44l-1.13,1.18a10.39,10.39,0,0,0-7.64-2.95,10.94,10.94,0,1,0,0,21.87,10.45,10.45,0,0,0,7.64-3l1.13,1.17a11.85,11.85,0,0,1-8.84,3.48C537.4,282.77,531.9,277.41,531.9,270.17Z"/><path class="cls-3" d="M577.92,275.6H563.51l-3.16,7h-2l11.43-24.86h1.81l11.43,24.86h-1.94Zm-.67-1.53-6.53-14.34-6.5,14.34Z"/><path class="cls-3" d="M588.37,270.17c0-7.25,5.5-12.61,12.89-12.61A11.86,11.86,0,0,1,610.1,261L609,262.18a10.38,10.38,0,0,0-7.63-2.95,10.94,10.94,0,1,0,0,21.87,10.45,10.45,0,0,0,7.63-3l1.13,1.17a11.85,11.85,0,0,1-8.84,3.48C593.87,282.77,588.37,277.41,588.37,270.17Z"/><path class="cls-3" d="M619.7,257.74h1.81V282.6H619.7Z"/><path class="cls-3" d="M631.33,270.17c0-7.21,5.5-12.61,12.92-12.61s12.93,5.36,12.93,12.61-5.54,12.6-12.93,12.6S631.33,277.37,631.33,270.17Zm24,0a11.1,11.1,0,1,0-11.08,10.93A10.73,10.73,0,0,0,655.33,270.17Z"/><path class="cls-3" d="M687.23,257.74V282.6h-1.49L668.8,261v21.6H667V257.74h1.53l16.9,21.59V257.74Z"/><path class="cls-3" d="M716.57,281v1.64H699.41V257.74H716v1.63H701.23v9.8h13.24v1.6H701.23V281Z"/><path class="cls-3" d="M724.17,279.4l.82-1.35a11.78,11.78,0,0,0,8.2,3.12c5,0,7.17-2.16,7.17-4.86,0-7.46-15.51-3-15.51-12.15,0-3.51,2.7-6.6,8.81-6.6a13.3,13.3,0,0,1,7.49,2.24l-.67,1.45a12.28,12.28,0,0,0-6.82-2.09c-4.83,0-7,2.24-7,5,0,7.46,15.52,3.05,15.52,12.07,0,3.52-2.81,6.57-8.95,6.57C729.53,282.77,726,281.39,724.17,279.4Z"/><g id="TpfD1D"><path class="cls-3" d="M644.1,127.78c3.33-8.65,17.4-45.74,21.24-56a24.85,24.85,0,0,1,24.41-16.36c10.56.22,19.42,6.84,22.8,17.22l34.08,124.18c2.1,7.65,1.44,15-2.79,21.8-10.37,16.58-31.55,13.21-40.53-1.41-2.41-3.93-18.63-63.84-19-65.12-1.14,2.91-11.36,29.67-15.65,40.53-2.88,7.29-7.15,13.54-14.54,17-9.72,4.55-21.76,1.28-29.29-7.64-4.7-5.56-20.94-49.15-21.54-50.5-2.09,7.56-12.72,46.26-16.18,58.6-3,10.57-11.82,18.32-21.66,19.42-14.66,1.64-23.81-10.07-25.43-20.26a30.06,30.06,0,0,1,.86-12.87C548.29,169.46,570.3,86.74,575,72.62c3.41-10.27,11.81-16.85,22.13-17.36,10.69-.52,19.77,4.88,24,15.07C627,84.5,644.1,127.78,644.1,127.78Z"/></g><path class="cls-4" d="M622,75.35l22.09,52.43-15.93,38.05a10.4,10.4,0,0,1-19.45-.22L576.79,81.4Z"/><path class="cls-5" d="M227.61,110.87h0a20.75,20.75,0,0,1,9.33,22.07c-2.51,11.12-2.29,29.64,15.63,44.6L209,191.74s-22-29.14-12.77-68.35C199.44,109.6,215.6,103.34,227.61,110.87Z"/><path class="cls-6" d="M449.07,80.08h0a20.74,20.74,0,0,1-13.73,19.63c-10.76,3.78-26.33,13.81-29.48,36.94l-35.2-29.38s13-34.13,51.11-47.15C435.18,55.54,449.07,65.91,449.07,80.08Z"/><path class="cls-7" d="M452,204.86h0a20.74,20.74,0,0,1,13.73-19.63c10.75-3.78,26.32-13.81,29.48-36.94l35.2,29.38s-13,34.13-51.11,47.15C465.92,229.4,452,219,452,204.86Z"/><path class="cls-8" d="M42.91,99H165.54a21.5,21.5,0,1,0,0-43H42.91a21.5,21.5,0,1,0,0,43Zm122.63,85H42.91c-11.86,0-21.57,9.14-21.57,21s9.71,21,21.57,21H165.54c11.86,0,21.56-9.14,21.56-21S177.4,184,165.54,184ZM42.91,162h94.7c11.86,0,21.57-9.14,21.57-21s-9.71-21-21.57-21H42.91c-11.86,0-21.57,9.14-21.57,21S31.05,162,42.91,162Z"/><path class="cls-9" d="M78.39,99h59.22a21.5,21.5,0,1,0,0-43H78.39a21.5,21.5,0,1,0,0,43Z"/><path class="cls-10" d="M123.7,141c0-11.86-9.7-21-21.56-21H42.91c-11.86,0-21.57,9.14-21.57,21s9.71,21,21.57,21h59.23C114,162,123.7,152.86,123.7,141Z"/><path class="cls-11" d="M137.61,184H78.39c-11.87,0-21.57,9.14-21.57,21s9.7,21,21.57,21h59.22c11.86,0,21.57-9.14,21.57-21S149.47,184,137.61,184Z"/></g></g></svg>