<svg id="Capa_1" data-name="Capa 1" xmlns="http://www.w3.org/2000/svg" xmlns:xlink="http://www.w3.org/1999/xlink" viewBox="0 0 931.68 354.24"><defs><style>.cls-1{fill:none;}.cls-2{fill:#218fc7;}.cls-3,.cls-6{fill:#8bab39;}.cls-3,.cls-4{opacity:0.81;}.cls-5{clip-path:url(#clip-path);}.cls-7{fill:#fff;}</style><clipPath id="clip-path"><rect class="cls-1" x="189.79" y="114.85" width="149.42" height="149.23"/></clipPath></defs><title>foco</title><rect class="cls-1" x="279.49" y="28.56" width="149.82" height="149.11"/><path class="cls-2" d="M335.52,49.7l-10.4,35.24s-32.36-9.25-59.51,15.6c-24.81,22.69-17.91,61.24-17.91,61.24L213.61,171s-14.44-58.93,24.27-94.17c47-42.77,97.64-27.15,97.64-27.15"/><path class="cls-2" d="M281.62,242.39l11.72-36a62.5,62.5,0,0,0,59-13.67c25.3-22.42,20.21-62.52,20.21-62.52l33.81-8.15s11.6,61.46-27.86,96.28c-47.9,42.25-96.88,24-96.88,24"/><path class="cls-3" d="M424.2,177.67,389,165.53s11.55-44.77-21.67-79.44c-28.1-29.32-78.86-19.35-78.86-19.35l-8.95-36.11s75-14.46,116.83,33c50.7,57.57,27.89,114,27.89,114"/><g class="cls-4"><g class="cls-5"><path class="cls-6" d="M194.93,114.85,230.1,127s-11.6,44.76,21.52,79.46c28,29.35,78.7,19.45,78.7,19.45L339.21,262s-74.94,14.36-116.59-33.13c-50.54-57.62-27.69-114.06-27.69-114.06"/></g></g><path class="cls-7" d="M780.2,26.22a120.1,120.1,0,1,0,120.1,120.1A120.1,120.1,0,0,0,780.2,26.22m0,208.42a88.32,88.32,0,1,1,88.32-88.32,88.32,88.32,0,0,1-88.32,88.32"/><polygon class="cls-7" points="202.29 58 202.29 26.22 61.47 26.22 29.7 26.22 29.7 58 29.7 130.43 29.7 162.21 29.7 266.42 61.47 266.42 61.47 162.21 155.16 162.21 155.16 130.43 61.47 130.43 61.47 58 202.29 58"/><path class="cls-7" d="M624.62,208.77a88.32,88.32,0,1,1,0-124.91L647.08,61.4a120.09,120.09,0,1,0,0,169.84Z"/><path class="cls-7" d="M50.33,328.67H37.84l-2.46,5.78H30.6l11.24-25H46.4l11.28,25H52.82ZM48.79,325l-4.71-10.91L39.41,325Z"/><path class="cls-7" d="M85.39,321.68h4.39v9.95A13.83,13.83,0,0,1,85.29,334a17.49,17.49,0,0,1-5.28.82,14.33,14.33,0,0,1-6.89-1.66,12.35,12.35,0,0,1-4.81-4.59,13.3,13.3,0,0,1,0-13.19,12.27,12.27,0,0,1,4.83-4.59,14.5,14.5,0,0,1,6.94-1.66,15.19,15.19,0,0,1,5.71,1,11.17,11.17,0,0,1,4.31,3L87.18,316a9.39,9.39,0,0,0-6.89-2.85,9.7,9.7,0,0,0-4.69,1.11,8,8,0,0,0-3.21,3.1A8.94,8.94,0,0,0,71.23,322a8.82,8.82,0,0,0,1.16,4.5,8.28,8.28,0,0,0,3.21,3.14,9.43,9.43,0,0,0,4.66,1.14,10.07,10.07,0,0,0,5.13-1.28Z"/><polygon class="cls-7" points="122.46 330.56 122.46 334.45 103.73 334.45 103.73 309.48 121.96 309.48 121.96 313.37 108.37 313.37 108.37 319.86 120.42 319.86 120.42 323.68 108.37 323.68 108.37 330.56 122.46 330.56"/><polygon class="cls-7" points="157.67 309.48 157.67 334.45 153.85 334.45 140.08 317.54 140.08 334.45 135.48 334.45 135.48 309.48 139.3 309.48 153.06 326.39 153.06 309.48 157.67 309.48"/><path class="cls-7" d="M177,333.15a12.25,12.25,0,0,1-4.78-4.58,12.78,12.78,0,0,1-1.73-6.6,12.55,12.55,0,0,1,1.75-6.6,12.3,12.3,0,0,1,4.79-4.59,14,14,0,0,1,6.84-1.66,14.33,14.33,0,0,1,5.6,1.07,11.48,11.48,0,0,1,4.28,3.11l-3,2.81a8.74,8.74,0,0,0-6.67-2.92,9.33,9.33,0,0,0-4.6,1.12,8.09,8.09,0,0,0-3.18,3.12,9.59,9.59,0,0,0,0,9.07,8.09,8.09,0,0,0,3.18,3.12,9.33,9.33,0,0,0,4.6,1.12,8.71,8.71,0,0,0,6.67-3l3,2.85a11.48,11.48,0,0,1-4.3,3.11,14.43,14.43,0,0,1-5.62,1.07,14.12,14.12,0,0,1-6.83-1.66"/><rect class="cls-7" x="206" y="309.48" width="4.64" height="24.97"/><path class="cls-7" d="M241.43,328.67H228.94l-2.46,5.78H221.7l11.24-25h4.56l11.28,25h-4.86ZM239.89,325l-4.71-10.91L230.51,325Z"/><path class="cls-7" d="M282.22,333.15a12.25,12.25,0,0,1-4.78-4.58,12.78,12.78,0,0,1-1.73-6.6,12.55,12.55,0,0,1,1.75-6.6,12.3,12.3,0,0,1,4.79-4.59,14,14,0,0,1,6.84-1.66,14.33,14.33,0,0,1,5.6,1.07A11.48,11.48,0,0,1,299,313.3l-3,2.81a8.74,8.74,0,0,0-6.67-2.92,9.33,9.33,0,0,0-4.6,1.12,8.09,8.09,0,0,0-3.18,3.12,9.59,9.59,0,0,0,0,9.07,8.09,8.09,0,0,0,3.18,3.12,9.33,9.33,0,0,0,4.6,1.12,8.71,8.71,0,0,0,6.67-3l3,2.85a11.48,11.48,0,0,1-4.3,3.11,14.43,14.43,0,0,1-5.62,1.07,14.12,14.12,0,0,1-6.83-1.66"/><polygon class="cls-7" points="333.46 309.48 333.46 334.45 328.82 334.45 328.82 323.75 315.91 323.75 315.91 334.45 311.27 334.45 311.27 309.48 315.91 309.48 315.91 319.79 328.82 319.79 328.82 309.48 333.46 309.48"/><path class="cls-7" d="M364.21,328.67H351.73l-2.46,5.78h-4.78l11.23-25h4.57l11.27,25h-4.85ZM362.68,325,358,314.12,353.3,325Z"/><path class="cls-7" d="M408.59,337a8.29,8.29,0,0,1-2.91,2.21,8.66,8.66,0,0,1-3.62.75,9.71,9.71,0,0,1-4.7-1.16,21.57,21.57,0,0,1-4.89-4,13.71,13.71,0,0,1-6.21-2,12.15,12.15,0,0,1-4.28-4.53,13.38,13.38,0,0,1,.21-12.81,12.33,12.33,0,0,1,4.82-4.6,15.11,15.11,0,0,1,13.77,0,12.28,12.28,0,0,1,4.81,4.59,13.3,13.3,0,0,1,.57,12.07,12.2,12.2,0,0,1-3.28,4.28,12.88,12.88,0,0,1-4.88,2.55,7.45,7.45,0,0,0,2,1.61,4.77,4.77,0,0,0,2.14.5,5.62,5.62,0,0,0,4.28-2Zm-22.33-10.47a8.17,8.17,0,0,0,3.14,3.14,9.58,9.58,0,0,0,9,0,8.17,8.17,0,0,0,3.14-3.14,9.51,9.51,0,0,0,0-9,8.17,8.17,0,0,0-3.14-3.14,9.58,9.58,0,0,0-9,0,8.17,8.17,0,0,0-3.14,3.14,9.51,9.51,0,0,0,0,9"/><path class="cls-7" d="M422.79,331.9c-1.93-1.94-2.89-4.71-2.89-8.33V309.48h4.64v13.91q0,7.35,6.35,7.35t6.31-7.35V309.48h4.57v14.09c0,3.62-1,6.39-2.88,8.33s-4.59,2.91-8,2.91-6.13-1-8.06-2.91"/><polygon class="cls-7" points="474.84 330.56 474.84 334.45 456.11 334.45 456.11 309.48 474.34 309.48 474.34 313.37 460.75 313.37 460.75 319.86 472.8 319.86 472.8 323.68 460.75 323.68 460.75 330.56 474.84 330.56"/><path class="cls-7" d="M510.05,309.48v25h-3.82l-13.77-16.91v16.91h-4.6v-25h3.81l13.77,16.91V309.48ZM500,307.09a14.65,14.65,0,0,1-1.63-1.07,10.58,10.58,0,0,0-.94-.7,1.42,1.42,0,0,0-.73-.23,1.54,1.54,0,0,0-1.23.57,2.5,2.5,0,0,0-.52,1.57h-2.39a5.52,5.52,0,0,1,1.09-3.48,3.39,3.39,0,0,1,2.76-1.3,3.17,3.17,0,0,1,1.55.36,13.78,13.78,0,0,1,1.63,1.07,10.58,10.58,0,0,0,.94.7,1.44,1.44,0,0,0,.73.23,1.56,1.56,0,0,0,1.23-.54,2.23,2.23,0,0,0,.52-1.5h2.39a5.56,5.56,0,0,1-1.1,3.39,3.35,3.35,0,0,1-2.75,1.29,3.17,3.17,0,0,1-1.55-.36"/><path class="cls-7" d="M540.8,328.67H528.31l-2.46,5.78h-4.78l11.24-25h4.56l11.28,25h-4.86ZM539.26,325l-4.71-10.91L529.88,325Z"/><path class="cls-7" d="M576.86,309.48h10.92a15.74,15.74,0,0,1,7.1,1.55,11.56,11.56,0,0,1,4.81,4.39,13.31,13.31,0,0,1,0,13.09,11.56,11.56,0,0,1-4.81,4.39,15.74,15.74,0,0,1-7.1,1.55H576.86Zm10.7,21a10.65,10.65,0,0,0,4.84-1.06,7.55,7.55,0,0,0,3.21-3,9.66,9.66,0,0,0,0-9,7.55,7.55,0,0,0-3.21-3,10.52,10.52,0,0,0-4.84-1.06H581.5v17.13Z"/><polygon class="cls-7" points="632.9 330.56 632.9 334.45 614.17 334.45 614.17 309.48 632.4 309.48 632.4 313.37 618.81 313.37 618.81 319.86 630.87 319.86 630.87 323.68 618.81 323.68 618.81 330.56 632.9 330.56"/><polygon class="cls-7" points="685.81 309.48 685.81 334.45 681.99 334.45 668.22 317.54 668.22 334.45 663.62 334.45 663.62 309.48 667.43 309.48 681.21 326.39 681.21 309.48 685.81 309.48"/><path class="cls-7" d="M705.14,333.15a12.31,12.31,0,0,1-4.81-4.6,13.26,13.26,0,0,1,0-13.17,12.31,12.31,0,0,1,4.81-4.6,15.11,15.11,0,0,1,13.77,0,12.43,12.43,0,0,1,4.82,4.58,13.32,13.32,0,0,1,0,13.2,12.38,12.38,0,0,1-4.82,4.59,15.11,15.11,0,0,1-13.77,0m11.38-3.53a8.17,8.17,0,0,0,3.14-3.14,9.51,9.51,0,0,0,0-9,8.17,8.17,0,0,0-3.14-3.14,9.58,9.58,0,0,0-9,0,8.17,8.17,0,0,0-3.14,3.14,9.51,9.51,0,0,0,0,9,8.17,8.17,0,0,0,3.14,3.14,9.58,9.58,0,0,0,9,0"/><polygon class="cls-7" points="742.96 313.4 734.68 313.4 734.68 309.48 755.87 309.48 755.87 313.4 747.6 313.4 747.6 334.45 742.96 334.45 742.96 313.4"/><rect class="cls-7" x="767.22" y="309.48" width="4.64" height="24.97"/><path class="cls-7" d="M791.17,333.15a12.25,12.25,0,0,1-4.78-4.58,12.68,12.68,0,0,1-1.73-6.6,12.55,12.55,0,0,1,1.75-6.6,12.3,12.3,0,0,1,4.79-4.59,14,14,0,0,1,6.84-1.66,14.33,14.33,0,0,1,5.6,1.07,11.57,11.57,0,0,1,4.28,3.11l-3,2.81a8.74,8.74,0,0,0-6.67-2.92,9.39,9.39,0,0,0-4.61,1.12,8.13,8.13,0,0,0-3.17,3.12,9.59,9.59,0,0,0,0,9.07,8.13,8.13,0,0,0,3.17,3.12,9.39,9.39,0,0,0,4.61,1.12,8.71,8.71,0,0,0,6.67-3l3,2.85a11.48,11.48,0,0,1-4.3,3.11,14.47,14.47,0,0,1-5.62,1.07,14.12,14.12,0,0,1-6.83-1.66"/><rect class="cls-7" x="820.22" y="309.48" width="4.64" height="24.97"/><path class="cls-7" d="M855.65,328.67H843.16l-2.46,5.78h-4.78l11.24-25h4.56l11.27,25h-4.84ZM854.11,325l-4.7-10.91L844.73,325Z"/></svg>