<svg id="Capa_1" data-name="Capa 1" xmlns="http://www.w3.org/2000/svg" xmlns:xlink="http://www.w3.org/1999/xlink" viewBox="0 0 314 122"><defs><style>.cls-1{fill:none;}.cls-2{fill:#218ec6;}.cls-3{opacity:0.8;}.cls-4{clip-path:url(#clip-path);}.cls-5{fill:#8aaa39;}.cls-6{clip-path:url(#clip-path-2);}.cls-7{fill:#5b5b5f;}</style><clipPath id="clip-path"><rect class="cls-1" x="106.93" y="20.91" width="40.94" height="40.75"/></clipPath><clipPath id="clip-path-2"><rect class="cls-1" x="82.42" y="44.5" width="40.84" height="40.78"/></clipPath></defs><title>foco</title><path class="cls-2" d="M122.25,26.69l-2.85,9.63a18.11,18.11,0,0,0-16.26,4.26c-6.78,6.21-4.89,16.74-4.89,16.74l-9.32,2.53s-4-16.11,6.63-25.74c12.84-11.69,26.69-7.42,26.69-7.42"/><path class="cls-2" d="M107.52,79.35l3.2-9.83a17.08,17.08,0,0,0,16.12-3.74c6.92-6.13,5.53-17.09,5.53-17.09l9.24-2.22s3.17,16.8-7.62,26.31c-13.09,11.55-26.47,6.57-26.47,6.57"/><g class="cls-3"><g class="cls-4"><path class="cls-5" d="M146.48,61.66l-9.63-3.31s3.16-12.24-5.92-21.71c-7.68-8-21.55-5.29-21.55-5.29l-2.45-9.87s20.51-3.95,31.93,9c13.86,15.74,7.62,31.17,7.62,31.17"/></g></g><g class="cls-3"><g class="cls-6"><path class="cls-5" d="M83.83,44.5l9.61,3.32s-3.17,12.23,5.88,21.72c7.65,8,21.51,5.31,21.51,5.31l2.43,9.87s-20.48,3.92-31.87-9C77.58,59.92,83.83,44.5,83.83,44.5"/></g></g><path class="cls-7" d="M243.77,20.27a32.83,32.83,0,1,0,32.82,32.82,32.83,32.83,0,0,0-32.82-32.82m0,57a24.14,24.14,0,1,1,24.14-24.14,24.14,24.14,0,0,1-24.14,24.14"/><polygon class="cls-7" points="85.84 28.96 85.84 20.27 47.35 20.27 38.67 20.27 38.67 28.96 38.67 48.75 38.67 57.44 38.67 85.92 47.35 85.92 47.35 57.44 72.96 57.44 72.96 48.75 47.35 48.75 47.35 28.96 85.84 28.96"/><path class="cls-7" d="M201.25,70.16a24.14,24.14,0,1,1,0-34.13l6.14-6.14a32.83,32.83,0,1,0,0,46.41Z"/><path class="cls-7" d="M44.31,102.93H40.9l-.68,1.58h-1.3L42,97.68h1.25l3.08,6.83H45Zm-.42-1L42.6,99l-1.27,3Z"/><path class="cls-7" d="M53.89,101h1.2v2.72a3.78,3.78,0,0,1-1.23.64,4.71,4.71,0,0,1-1.44.23,3.9,3.9,0,0,1-1.88-.46,3.38,3.38,0,0,1-1.8-3.05,3.47,3.47,0,0,1,.48-1.81A3.38,3.38,0,0,1,50.54,98a4,4,0,0,1,1.9-.45,4.13,4.13,0,0,1,1.56.28,3,3,0,0,1,1.18.83l-.8.78a2.57,2.57,0,0,0-1.88-.78,2.66,2.66,0,0,0-1.28.3,2.12,2.12,0,0,0-.88.85A2.45,2.45,0,0,0,50,101.1a2.39,2.39,0,0,0,.32,1.22,2.14,2.14,0,0,0,.88.86,2.52,2.52,0,0,0,1.27.31,2.67,2.67,0,0,0,1.4-.35Z"/><polygon class="cls-7" points="64.02 103.45 64.02 104.51 58.9 104.51 58.9 97.68 63.88 97.68 63.88 98.75 60.17 98.75 60.17 100.52 63.46 100.52 63.46 101.56 60.17 101.56 60.17 103.45 64.02 103.45"/><polygon class="cls-7" points="73.64 97.68 73.64 104.51 72.6 104.51 68.84 99.89 68.84 104.51 67.58 104.51 67.58 97.68 68.62 97.68 72.39 102.31 72.39 97.68 73.64 97.68"/><path class="cls-7" d="M78.91,104.15a3.33,3.33,0,0,1-1.3-1.25,3.41,3.41,0,0,1-.48-1.8,3.47,3.47,0,0,1,.48-1.81A3.42,3.42,0,0,1,78.92,98a3.89,3.89,0,0,1,1.87-.45,3.79,3.79,0,0,1,1.53.29,3.1,3.1,0,0,1,1.17.85l-.82.77a2.35,2.35,0,0,0-1.82-.8,2.5,2.5,0,0,0-1.26.31,2.16,2.16,0,0,0-.87.85,2.62,2.62,0,0,0,0,2.47,2.25,2.25,0,0,0,.87.86,2.61,2.61,0,0,0,1.26.3,2.39,2.39,0,0,0,1.82-.8l.82.78a3,3,0,0,1-1.18.84,3.8,3.8,0,0,1-1.53.3,3.89,3.89,0,0,1-1.87-.46"/><rect class="cls-7" x="86.85" y="97.68" width="1.27" height="6.82"/><path class="cls-7" d="M96.53,102.93H93.12l-.67,1.58H91.14l3.07-6.83h1.25l3.08,6.83H97.22Zm-.42-1-1.28-3-1.28,3Z"/><path class="cls-7" d="M107.68,104.15a3.35,3.35,0,0,1-1.31-1.25,3.67,3.67,0,0,1,0-3.61A3.35,3.35,0,0,1,107.69,98a3.89,3.89,0,0,1,1.87-.45,3.79,3.79,0,0,1,1.53.29,3.1,3.1,0,0,1,1.17.85l-.82.77a2.37,2.37,0,0,0-1.82-.8,2.5,2.5,0,0,0-1.26.31,2.16,2.16,0,0,0-.87.85,2.62,2.62,0,0,0,0,2.47,2.25,2.25,0,0,0,.87.86,2.61,2.61,0,0,0,1.26.3,2.4,2.4,0,0,0,1.82-.8l.82.78a3,3,0,0,1-1.18.84,3.8,3.8,0,0,1-1.53.3,3.89,3.89,0,0,1-1.87-.46"/><polygon class="cls-7" points="121.69 97.68 121.69 104.51 120.42 104.51 120.42 101.58 116.89 101.58 116.89 104.51 115.62 104.51 115.62 97.68 116.89 97.68 116.89 100.5 120.42 100.5 120.42 97.68 121.69 97.68"/><path class="cls-7" d="M130.09,102.93h-3.41l-.68,1.58h-1.3l3.07-6.83H129l3.08,6.83h-1.33Zm-.42-1-1.29-3-1.27,3Z"/><path class="cls-7" d="M142.22,105.19a2.34,2.34,0,0,1-.8.61,2.47,2.47,0,0,1-1,.2,2.61,2.61,0,0,1-1.28-.32,5.76,5.76,0,0,1-1.34-1.09,3.88,3.88,0,0,1-1.7-.55,3.39,3.39,0,0,1-1.17-1.24,3.48,3.48,0,0,1-.42-1.7,3.41,3.41,0,0,1,.48-1.8A3.33,3.33,0,0,1,136.32,98a4.15,4.15,0,0,1,3.76,0,3.38,3.38,0,0,1,1.32,1.25,3.47,3.47,0,0,1,.48,1.81,3.39,3.39,0,0,1-.33,1.49,3.31,3.31,0,0,1-.89,1.17,3.58,3.58,0,0,1-1.34.7,2,2,0,0,0,.56.44,1.27,1.27,0,0,0,.58.13,1.54,1.54,0,0,0,1.17-.54Zm-6.11-2.86a2.29,2.29,0,0,0,.86.86,2.67,2.67,0,0,0,2.46,0,2.29,2.29,0,0,0,.86-.86,2.62,2.62,0,0,0,0-2.47,2.26,2.26,0,0,0-.86-.85A2.6,2.6,0,0,0,137,99a2.26,2.26,0,0,0-.86.85,2.62,2.62,0,0,0,0,2.47"/><path class="cls-7" d="M146.1,103.81a3.08,3.08,0,0,1-.79-2.28V97.68h1.26v3.81c0,1.34.58,2,1.74,2s1.72-.66,1.72-2V97.68h1.25v3.85a3.12,3.12,0,0,1-.78,2.28,3.43,3.43,0,0,1-4.4,0"/><polygon class="cls-7" points="160.32 103.45 160.32 104.51 155.2 104.51 155.2 97.68 160.18 97.68 160.18 98.75 156.47 98.75 156.47 100.52 159.76 100.52 159.76 101.56 156.47 101.56 156.47 103.45 160.32 103.45"/><path class="cls-7" d="M169.94,97.68v6.83h-1l-3.76-4.62v4.62h-1.26V97.68h1l3.76,4.63V97.68ZM167.19,97a3.58,3.58,0,0,1-.45-.29,2.06,2.06,0,0,0-.25-.19.39.39,0,0,0-.54.09.69.69,0,0,0-.14.43h-.65a1.48,1.48,0,0,1,.29-.95,1,1,0,0,1,1.18-.26,5.26,5.26,0,0,1,.45.29,2.06,2.06,0,0,0,.25.19.35.35,0,0,0,.2.07.43.43,0,0,0,.34-.15.58.58,0,0,0,.14-.41h.66a1.59,1.59,0,0,1-.31.93.93.93,0,0,1-.75.35.82.82,0,0,1-.42-.1"/><path class="cls-7" d="M178.35,102.93h-3.42l-.67,1.58H173L176,97.68h1.24l3.08,6.83H179Zm-.42-1-1.29-3-1.28,3Z"/><path class="cls-7" d="M188.2,97.68h3a4.36,4.36,0,0,1,1.94.43,3.11,3.11,0,0,1,1.31,1.2,3.39,3.39,0,0,1,.47,1.79,3.44,3.44,0,0,1-.47,1.79,3.15,3.15,0,0,1-1.31,1.19,4.23,4.23,0,0,1-1.94.43h-3Zm2.93,5.76a2.92,2.92,0,0,0,1.32-.29,2.11,2.11,0,0,0,.88-.82,2.46,2.46,0,0,0,.3-1.23,2.5,2.5,0,0,0-.3-1.24,2.18,2.18,0,0,0-.88-.82,2.91,2.91,0,0,0-1.32-.28h-1.66v4.68Z"/><polygon class="cls-7" points="203.52 103.45 203.52 104.51 198.4 104.51 198.4 97.68 203.38 97.68 203.38 98.75 199.67 98.75 199.67 100.52 202.96 100.52 202.96 101.56 199.67 101.56 199.67 103.45 203.52 103.45"/><polygon class="cls-7" points="217.97 97.68 217.97 104.51 216.93 104.51 213.17 99.89 213.17 104.51 211.91 104.51 211.91 97.68 212.95 97.68 216.72 102.31 216.72 97.68 217.97 97.68"/><path class="cls-7" d="M223.26,104.15a3.38,3.38,0,0,1-1.32-1.25,3.46,3.46,0,0,1-.47-1.8,3.41,3.41,0,0,1,.47-1.8A3.33,3.33,0,0,1,223.26,98,4.15,4.15,0,0,1,227,98a3.38,3.38,0,0,1,1.32,1.25,3.47,3.47,0,0,1,.48,1.81,3.38,3.38,0,0,1-1.8,3.05,4.07,4.07,0,0,1-3.76,0m3.11-1a2.29,2.29,0,0,0,.86-.86,2.62,2.62,0,0,0,0-2.47,2.26,2.26,0,0,0-.86-.85,2.42,2.42,0,0,0-1.23-.31,2.44,2.44,0,0,0-1.23.31,2.26,2.26,0,0,0-.86.85,2.62,2.62,0,0,0,0,2.47,2.29,2.29,0,0,0,.86.86,2.54,2.54,0,0,0,1.23.3,2.52,2.52,0,0,0,1.23-.3"/><polygon class="cls-7" points="233.59 98.76 231.33 98.76 231.33 97.68 237.12 97.68 237.12 98.76 234.86 98.76 234.86 104.51 233.59 104.51 233.59 98.76"/><rect class="cls-7" x="240.22" y="97.68" width="1.27" height="6.82"/><path class="cls-7" d="M246.77,104.15a3.35,3.35,0,0,1-1.31-1.25,3.67,3.67,0,0,1,0-3.61A3.35,3.35,0,0,1,246.78,98a4.14,4.14,0,0,1,3.4-.16,3.1,3.1,0,0,1,1.17.85l-.82.77a2.38,2.38,0,0,0-1.83-.8,2.49,2.49,0,0,0-1.25.31,2.16,2.16,0,0,0-.87.85,2.62,2.62,0,0,0,0,2.47,2.25,2.25,0,0,0,.87.86,2.6,2.6,0,0,0,1.25.3,2.41,2.41,0,0,0,1.83-.8l.82.78a3,3,0,0,1-1.18.84,4,4,0,0,1-3.4-.16"/><rect class="cls-7" x="254.71" y="97.68" width="1.27" height="6.82"/><path class="cls-7" d="M264.39,102.93H261l-.67,1.58H259l3.07-6.83h1.25l3.08,6.83h-1.33Zm-.42-1-1.29-3-1.27,3Z"/><path class="cls-7" d="M270,104.38a3.23,3.23,0,0,1-1.16-.59l.43-1a3.58,3.58,0,0,0,1,.54,3.79,3.79,0,0,0,1.23.21,2.13,2.13,0,0,0,1.13-.24.74.74,0,0,0,.38-.64.64.64,0,0,0-.21-.49,1.58,1.58,0,0,0-.53-.29,8.77,8.77,0,0,0-.88-.25,8.63,8.63,0,0,1-1.26-.37,2,2,0,0,1-.83-.58,1.57,1.57,0,0,1-.35-1.07,1.75,1.75,0,0,1,.31-1,2,2,0,0,1,.92-.74,3.83,3.83,0,0,1,1.52-.27,5.05,5.05,0,0,1,1.23.15,3.67,3.67,0,0,1,1,.45l-.4,1a3.79,3.79,0,0,0-.93-.4,3.58,3.58,0,0,0-.95-.14,2,2,0,0,0-1.12.25.8.8,0,0,0-.36.68.59.59,0,0,0,.21.47,1.6,1.6,0,0,0,.53.3c.21.07.51.15.88.24a11.89,11.89,0,0,1,1.25.36,2.11,2.11,0,0,1,.83.59,1.53,1.53,0,0,1,.35,1,1.81,1.81,0,0,1-.31,1,2.1,2.1,0,0,1-.93.73,3.85,3.85,0,0,1-1.52.28,5.2,5.2,0,0,1-1.53-.23"/></svg>