<svg id="Capa_1" data-name="Capa 1" xmlns="http://www.w3.org/2000/svg" viewBox="0 0 1700.79 1700.79"><defs><style>.cls-1{fill:#3a9953;}.cls-2{fill:#ddb622;}.cls-3{fill:#3889c8;}.cls-4{fill:#c1354f;}</style></defs><title>isologo</title><path class="cls-1" d="M288.93,621.23a501.55,501.55,0,0,1,95-27.11h0c109.63-20.27,229.74-9.49,316.2,22.76h0C735.35,630,765,646.78,786,666.43a116.34,116.34,0,0,1,25.92,34.06c15.55,32.76,11.09,71.43-8.09,111.81h0c-31.88,66.87-103.67,138.4-189.93,195.47h0a727.31,727.31,0,0,1-198.37,93.72C35.46,1210.61,24.05,718.73,288.93,621.23Z"/><path class="cls-2" d="M1411.86,1079.87a498.13,498.13,0,0,1-95,27h0c-109.63,20.32-229.73,9.54-316.2-22.7h0c-35.24-13.17-64.84-29.91-85.89-49.61a117,117,0,0,1-25.92-34c-15.55-32.82-11.09-71.49,8.19-111.81h0c31.78-66.87,103.68-138.41,189.83-195.53h0a729.19,729.19,0,0,1,198.32-93.72C1665.34,490.34,1676.74,982.27,1411.86,1079.87Z"/><path class="cls-3" d="M621.05,1412a495.75,495.75,0,0,1-27-95h0c-20.32-109.68-9.59-229.73,22.71-316.2h0c13.16-35.24,29.9-64.89,49.55-85.84a115.53,115.53,0,0,1,34.06-25.91c32.81-15.55,71.43-11.15,111.81,8.08h0C879,929,950.57,1000.82,1007.69,1087h0c41.11,62.2,74.75,131.4,93.67,198.32C1210.53,1665.36,718.6,1676.87,621.05,1412Z"/><path class="cls-4" d="M1079.69,289a499.48,499.48,0,0,1,27.06,95h0c20.32,109.63,9.54,229.74-22.7,316.2h0c-13.17,35.25-30,64.84-49.56,85.89A116.38,116.38,0,0,1,1000.38,812c-32.76,15.55-71.37,11.09-111.75-8.14h0C821.76,772.07,750.17,700.23,693.1,614h0c-41.11-62.2-74.75-131.4-93.67-198.27C490.27,35.59,982.14,24.18,1079.69,289Z"/></svg>