<svg id="Capa_1" data-name="Capa 1" xmlns="http://www.w3.org/2000/svg" viewBox="0 0 1080 323.6"><defs><style>.cls-1{fill:#0dd35e;}.cls-2{fill:#e8bd0c;}.cls-3{fill:#009eff;}.cls-4{fill:#1d1d1b;}.cls-5{fill:#db284f;}</style></defs><title>Logo_Chtv_negro</title><path class="cls-1" d="M53.58,117.57a96.71,96.71,0,0,1,18.32-5.23h0c21.15-3.91,44.32-1.83,61,4.39h0c6.8,2.54,12.52,5.77,16.57,9.56a22.42,22.42,0,0,1,5,6.57c3,6.32,2.14,13.78-1.56,21.57h0c-6.15,12.9-20,26.7-36.64,37.71h0A140.31,140.31,0,0,1,78,210.22C4.68,231.27,2.48,136.38,53.58,117.57Z"/><path class="cls-2" d="M270.21,206.05a96.15,96.15,0,0,1-18.32,5.21h0c-21.15,3.92-44.32,1.84-61-4.38h0c-6.8-2.54-12.51-5.77-16.57-9.57a22.55,22.55,0,0,1-5-6.56c-3-6.33-2.14-13.79,1.58-21.57h0c6.13-12.9,20-26.7,36.62-37.72h0a140.65,140.65,0,0,1,38.26-18.08C319.11,92.32,321.31,187.22,270.21,206.05Z"/><path class="cls-3" d="M117.65,270.12a95.63,95.63,0,0,1-5.21-18.32h0c-3.92-21.16-1.85-44.32,4.38-61h0c2.54-6.8,5.77-12.52,9.56-16.56a22.29,22.29,0,0,1,6.57-5c6.33-3,13.78-2.15,21.57,1.56h0c12.9,6.14,26.7,20,37.72,36.63h0c7.93,12,14.42,25.35,18.07,38.26C231.37,319,136.47,321.22,117.65,270.12Z"/><path class="cls-2" d="M167.71,179.47a19.68,19.68,0,0,0,1.56,11.13,22.46,22.46,0,0,0,5,6.57c4.05,3.79,9.77,7,16.56,9.56.38.14.8.25,1.18.38C184.74,196.23,176.3,186.57,167.71,179.47Z"/><path class="cls-4" d="M388.55,253.39a88.12,88.12,0,0,1-35.35-32.94q-12.79-21.16-12.79-48t12.79-48a88.08,88.08,0,0,1,35.35-32.95q22.56-11.79,50.69-11.78,25.85,0,46.13,9.12a85.81,85.81,0,0,1,33.45,26.35l-37.77,33.71q-16.47-20.78-38.77-20.78-18.75,0-30.15,12t-11.4,32.31q0,20.28,11.4,32.32t30.15,12q22.29,0,38.77-20.78l37.77,33.71a85.63,85.63,0,0,1-33.45,26.35q-20.28,9.12-46.13,9.13Q411.12,265.18,388.55,253.39Z"/><path class="cls-4" d="M710.92,83.72v177.4H651.11V195.74H595.86v65.38H536V83.72h59.82v62.85h55.25V83.72Z"/><path class="cls-4" d="M785.16,111.6H726.37V83.72H876.91V111.6h-58.8V261.12h-33Z"/><path class="cls-4" d="M1061.41,83.72l-77.29,177.4H951.67L874.12,83.72h35.73l59,136.85,59.56-136.85Z"/><path class="cls-5" d="M206.13,53.48a96.47,96.47,0,0,1,5.22,18.33h0c3.92,21.15,1.84,44.32-4.38,61h0c-2.54,6.8-5.78,12.51-9.56,16.57a22.45,22.45,0,0,1-6.58,5c-6.32,3-13.77,2.14-21.56-1.57h0c-12.9-6.14-26.71-20-37.72-36.63h0c-7.93-12-14.42-25.35-18.07-38.25C92.42,4.59,187.31,2.39,206.13,53.48Z"/><path class="cls-1" d="M154.49,133a22.59,22.59,0,0,0-5-6.57c-4.06-3.79-9.77-7-16.57-9.57h0c-.37-.13-.79-.24-1.17-.37a128.82,128.82,0,0,0,24.29,27.64A19.77,19.77,0,0,0,154.49,133Z"/></svg>