<svg id="Capa_1" data-name="Capa 1" xmlns="http://www.w3.org/2000/svg" viewBox="0 0 323 329"><defs><style>.cls-1{fill:#b2b2b2;}</style></defs><title>menu</title><path class="cls-1" d="M311.84,85.66c-.57,1.84-1,3.72-1.72,5.5-4.22,10.62-12,16.7-23.39,18a39.71,39.71,0,0,1-4.37.2q-120.11,0-240.2,0c-11.73,0-20.83-4.65-26.28-15.15-9.3-17.91,3.3-38.91,23.77-39.94,1.16-.06,2.33,0,3.5,0q119.22,0,238.45,0c16.29,0,26,7.57,29.91,23.37,0,.17.21.31.33.46Z"/><path class="cls-1" d="M311.84,254.44a64.73,64.73,0,0,1-2.22,6.87c-4.74,10.56-13,16.1-24.52,16.91-.78.06-1.56,0-2.34,0H42c-13.3,0-23.69-7.1-27.67-18.79a27.45,27.45,0,0,1,23.78-36.13c1.55-.12,3.11-.19,4.67-.19H282.08c13.95,0,24.21,6.81,28.26,18.73.56,1.63,1,3.3,1.5,5Z"/><path class="cls-1" d="M311.84,169.76c-.46,1.67-.84,3.37-1.38,5a27.24,27.24,0,0,1-25.74,18.93c-16.55.12-33.09,0-49.64.05q-96.79,0-193.58,0c-13.78,0-24.61-8.17-27.83-20.85-4.29-16.87,8.4-33.73,25.79-34.07,9.34-.19,18.68-.06,28-.06H280.92c17.17,0,26,6.72,30.58,23.21a4.85,4.85,0,0,0,.34.78Z"/></svg>