<svg id="Capa_1" data-name="Capa 1" xmlns="http://www.w3.org/2000/svg" viewBox="0 0 499.68 339.84"><defs><style>.cls-1{fill:#3a9953;}.cls-2{fill:#1a1a1a;}.cls-3{fill:#3786c5;}</style></defs><title>radioN</title><polygon class="cls-1" points="275.71 11.66 275.71 94.49 257 94.49 257 42.49 240.83 52.37 240.83 31.42 275.71 11.66"/><polygon class="cls-1" points="137.41 11.66 137.41 94.49 118.69 94.49 118.69 42.49 102.53 52.37 102.53 31.42 137.41 11.66"/><path class="cls-1" d="M385.71,69.08c0,14.32-10.51,26.8-33.61,26.8-11.21,0-23-3.12-30.84-8.67l7.39-14.32a38.91,38.91,0,0,0,23,7.28c9.35,0,15.13-3.93,15.13-10.51,0-6.36-4.16-10.51-18.83-10.51H327.27l4.15-45.51h49.32v15H347L345.75,44h6.58c23.91,0,33.38,10.74,33.38,25.06"/><path class="cls-1" d="M191.63,34a20.81,20.81,0,1,1-20.81,20.81A20.83,20.83,0,0,1,191.63,34m0-20.31a41.12,41.12,0,1,0,41.12,41.12,41.12,41.12,0,0,0-41.12-41.12"/><path class="cls-2" d="M58,191.08H49.61v23H18.72V122.49H62.83c25.52,0,41.75,13.35,41.75,34.56,0,13.22-6.28,23.17-17.27,28.79l19.24,28.28h-33Zm2.88-44.77H49.61v21.47H60.86c8.51,0,12.57-4.06,12.57-10.73s-4.06-10.74-12.57-10.74"/><path class="cls-2" d="M178.67,198.15H143.85l-6.15,16H106.29l40.05-91.63h30.37l40,91.63H184.82Zm-8.51-22.25-8.9-23-8.9,23Z"/><path class="cls-2" d="M221.74,122.49H266.9c30.63,0,51.7,17.41,51.7,45.82s-21.07,45.81-51.7,45.81H221.74ZM265.59,190c13,0,21.86-7.72,21.86-21.72s-8.9-21.73-21.86-21.73h-13V190Z"/><rect class="cls-2" x="329.86" y="122.49" width="30.89" height="91.63"/><path class="cls-2" d="M372,168.31c0-27.75,21.85-47.91,51.7-47.91s51.7,20.16,51.7,47.91-21.86,47.9-51.7,47.9S372,196.06,372,168.31m72.25,0c0-14.27-9.17-22.91-20.55-22.91s-20.55,8.64-20.55,22.91,9.16,22.9,20.55,22.9,20.55-8.64,20.55-22.9"/><path class="cls-2" d="M68.1,251.7c0,12.15-9.3,19.8-23.92,19.8H36.61v12.89H18.91V231.91H44.18c14.62,0,23.92,7.65,23.92,19.79m-17.85,0c0-3.82-2.32-6.15-7.2-6.15H36.61v12.3h6.44c4.88,0,7.2-2.32,7.2-6.15"/><path class="cls-2" d="M96.37,271.2h-4.8v13.19H73.88V231.91H99.15c14.62,0,23.91,7.65,23.91,19.79,0,7.58-3.6,13.27-9.89,16.5l11,16.19h-18.9ZM98,245.55H91.57v12.3H98c4.87,0,7.2-2.32,7.2-6.15s-2.33-6.15-7.2-6.15"/><path class="cls-2" d="M127.64,258.15c0-15.9,12.52-27.44,29.62-27.44s29.62,11.54,29.62,27.44-12.53,27.44-29.62,27.44-29.62-11.54-29.62-27.44m41.39,0C169,250,163.78,245,157.26,245s-11.77,4.95-11.77,13.12,5.24,13.12,11.77,13.12S169,266.32,169,258.15"/><polygon class="cls-2" points="247.54 231.91 225.34 284.39 207.95 284.39 185.75 231.91 204.8 231.91 217.32 262.57 230.14 231.91 247.54 231.91"/><rect class="cls-2" x="249.26" y="231.91" width="17.7" height="52.49"/><polygon class="cls-2" points="327.25 231.91 327.25 284.39 312.7 284.39 292.75 260.55 292.75 284.39 275.51 284.39 275.51 231.91 290.06 231.91 310 255.75 310 231.91 327.25 231.91"/><path class="cls-2" d="M333.69,258.15c0-16.12,12.38-27.44,29.25-27.44,10.27,0,18.37,3.75,23.54,10.5l-11.17,10c-3.07-3.9-6.75-6.15-11.47-6.15-7.35,0-12.3,5.1-12.3,13.12s4.95,13.12,12.3,13.12c4.72,0,8.4-2.25,11.47-6.15l11.17,10c-5.17,6.74-13.27,10.49-23.54,10.49-16.87,0-29.25-11.32-29.25-27.44"/><rect class="cls-2" x="391.58" y="231.91" width="17.7" height="52.49"/><path class="cls-2" d="M453.59,275.25H433.65l-3.53,9.14h-18l22.94-52.48h17.4l22.94,52.48H457.12Zm-4.87-12.75-5.1-13.2-5.1,13.2Z"/><path class="cls-1" d="M285.39,82.67c0-6.41,4.75-10.61,10.71-10.61s10.72,4.2,10.72,10.61a10.72,10.72,0,1,1-21.43,0"/><polygon class="cls-2" points="34.16 326.5 34.16 328.01 18.27 328.01 18.27 304.98 33.66 304.98 33.66 306.5 19.95 306.5 19.95 315.58 32.22 315.58 32.22 317.06 19.95 317.06 19.95 326.5 34.16 326.5"/><polygon class="cls-2" points="50.13 304.98 51.81 304.98 51.81 326.5 65.07 326.5 65.07 328.01 50.13 328.01 50.13 304.98"/><path class="cls-2" d="M111.8,321.53H98.45L95.52,328H93.71l10.59-23H106l10.59,23h-1.81Zm-.62-1.41-6.05-13.29-6,13.29Z"/><rect class="cls-2" x="130.61" y="304.98" width="1.68" height="23.03"/><path class="cls-2" d="M166.17,328l-5.5-7.7a15.89,15.89,0,0,1-2.23.17h-6.58V328h-1.68V305h8.26c5.79,0,9.27,2.9,9.27,7.77a7.06,7.06,0,0,1-5.39,7.2l5.76,8.06Zm-7.73-9c4.93,0,7.56-2.3,7.56-6.25s-2.63-6.25-7.56-6.25h-6.58V319Z"/><polygon class="cls-2" points="199.61 326.5 199.61 328.01 183.72 328.01 183.72 304.98 199.12 304.98 199.12 306.5 185.4 306.5 185.4 315.58 197.67 315.58 197.67 317.06 185.4 317.06 185.4 326.5 199.61 326.5"/><path class="cls-2" d="M233.91,305H243c7.31,0,12.24,4.81,12.24,11.52S250.33,328,243,328h-9.11Zm9,21.52c6.52,0,10.69-4.15,10.69-10s-4.17-10-10.69-10h-7.3v20Z"/><polygon class="cls-2" points="286.83 326.5 286.83 328.01 270.94 328.01 270.94 304.98 286.34 304.98 286.34 306.5 272.62 306.5 272.62 315.58 284.89 315.58 284.89 317.06 272.62 317.06 272.62 326.5 286.83 326.5"/><polygon class="cls-2" points="325.54 306.5 317.25 306.5 317.25 304.98 335.5 304.98 335.5 306.5 327.22 306.5 327.22 328.01 325.54 328.01 325.54 306.5"/><path class="cls-2" d="M347,316.5c0-6.68,5.1-11.68,12-11.68s12,5,12,11.68-5.13,11.68-12,11.68-12-5-12-11.68m22.24,0A10.28,10.28,0,1,0,359,326.63a9.95,9.95,0,0,0,10.27-10.13"/><path class="cls-2" d="M386.61,305h9.11C403,305,408,309.79,408,316.5S403,328,395.72,328h-9.11Zm9,21.52c6.51,0,10.69-4.15,10.69-10s-4.18-10-10.69-10h-7.3v20Z"/><path class="cls-2" d="M421.44,316.5c0-6.68,5.1-11.68,12-11.68s12,5,12,11.68-5.12,11.68-12,11.68-12-5-12-11.68m22.23,0a10.28,10.28,0,1,0-10.26,10.13,9.94,9.94,0,0,0,10.26-10.13"/><path class="cls-2" d="M458.73,325.05l.76-1.25a10.92,10.92,0,0,0,7.6,2.9c4.6,0,6.64-2,6.64-4.51,0-6.91-14.37-2.76-14.37-11.25,0-3.26,2.5-6.12,8.16-6.12a12.39,12.39,0,0,1,6.94,2.07l-.63,1.35a11.34,11.34,0,0,0-6.31-1.94c-4.48,0-6.49,2.07-6.49,4.61,0,6.91,14.38,2.82,14.38,11.18,0,3.26-2.6,6.09-8.29,6.09-3.42,0-6.71-1.29-8.39-3.13"/><rect class="cls-3" x="61.94" y="13.64" width="20.13" height="80.85"/><rect class="cls-3" x="20.01" y="48.55" width="20.13" height="45.94"/><rect class="cls-3" x="405.81" y="13.64" width="20.13" height="80.85"/><rect class="cls-3" x="447.75" y="48.55" width="20.13" height="45.94"/></svg>