<svg id="Capa_1" data-name="Capa 1" xmlns="http://www.w3.org/2000/svg" viewBox="0 0 499.68 339.84"><defs><style>.cls-1{fill:#3a9953;}.cls-2{fill:#f5f5f5;}.cls-3{fill:#3786c5;}</style></defs><title>radio</title><polygon class="cls-1" points="273.59 12.03 273.59 93.91 255.09 93.91 255.09 42.5 239.1 52.26 239.1 31.56 273.59 12.03"/><polygon class="cls-1" points="136.86 12.03 136.86 93.91 118.36 93.91 118.36 42.5 102.37 52.26 102.37 31.56 136.86 12.03"/><path class="cls-1" d="M382.33,68.79c0,14.16-10.39,26.49-33.23,26.49-11.07,0-22.72-3.08-30.48-8.56l7.3-14.16a38.55,38.55,0,0,0,22.73,7.19c9.25,0,15-3.88,15-10.39C363.6,63.08,359.5,59,345,59H324.55l4.11-45h48.76V28.82H344.08L342.82,44h6.51c23.64,0,33,10.62,33,24.78"/><path class="cls-1" d="M190.46,34.06a20.57,20.57,0,1,1-20.57,20.57,20.6,20.6,0,0,1,20.57-20.57m0-20.08a40.65,40.65,0,1,0,40.65,40.65A40.65,40.65,0,0,0,190.46,14"/><path class="cls-2" d="M58.34,189.4H50.06v22.77H19.52V121.59H63.13c25.23,0,41.28,13.2,41.28,34.17,0,13.06-6.21,22.9-17.08,28.46l19,27.95H73.74Zm2.85-44.26H50.06v21.22H61.19c8.41,0,12.42-4,12.42-10.6s-4-10.62-12.42-10.62"/><path class="cls-2" d="M177.65,196.39H143.23l-6.08,15.79H106.09l39.6-90.59h30l39.6,90.59H183.73Zm-8.41-22-8.8-22.78-8.8,22.78Z"/><path class="cls-2" d="M220.23,121.59h44.64c30.28,0,51.12,17.21,51.12,45.29s-20.84,45.29-51.12,45.29H220.23Zm43.35,66.77c12.81,0,21.61-7.63,21.61-21.48s-8.8-21.48-21.61-21.48H250.77v43Z"/><rect class="cls-2" x="327.11" y="121.59" width="30.54" height="90.58"/><path class="cls-2" d="M368.78,166.88c0-27.43,21.61-47.36,51.12-47.36S471,139.45,471,166.88s-21.61,47.36-51.11,47.36-51.12-19.92-51.12-47.36m71.43,0c0-14.1-9.06-22.64-20.31-22.64s-20.32,8.54-20.32,22.64,9.06,22.65,20.32,22.65,20.31-8.54,20.31-22.65"/><path class="cls-2" d="M68.34,249.33c0,12-9.19,19.57-23.65,19.57H37.21v12.75H19.71V229.76h25c14.46,0,23.65,7.56,23.65,19.57m-17.64,0c0-3.78-2.3-6.08-7.12-6.08H37.21v12.16h6.37c4.82,0,7.12-2.3,7.12-6.08"/><path class="cls-2" d="M96.29,268.6H91.54v13H74.05V229.76H99c14.46,0,23.65,7.56,23.65,19.57,0,7.49-3.56,13.12-9.79,16.31l10.9,16H105.11Zm1.63-25.35H91.54v12.16h6.38c4.82,0,7.12-2.3,7.12-6.08s-2.3-6.08-7.12-6.08"/><path class="cls-2" d="M127.2,255.71c0-15.72,12.38-27.13,29.28-27.13s29.28,11.41,29.28,27.13-12.38,27.13-29.28,27.13-29.28-11.42-29.28-27.13m40.92,0c0-8.08-5.19-13-11.64-13s-11.64,4.9-11.64,13,5.19,13,11.64,13,11.64-4.89,11.64-13"/><polygon class="cls-2" points="245.73 229.76 223.79 281.65 206.59 281.65 184.65 229.76 203.48 229.76 215.86 260.08 228.54 229.76 245.73 229.76"/><rect class="cls-2" x="247.44" y="229.76" width="17.49" height="51.89"/><polygon class="cls-2" points="324.53 229.76 324.53 281.65 310.15 281.65 290.44 258.08 290.44 281.65 273.38 281.65 273.38 229.76 287.77 229.76 307.48 253.33 307.48 229.76 324.53 229.76"/><path class="cls-2" d="M330.91,255.71c0-15.94,12.23-27.13,28.91-27.13,10.15,0,18.16,3.7,23.27,10.37l-11,9.86c-3-3.85-6.67-6.08-11.34-6.08-7.27,0-12.16,5-12.16,13s4.89,13,12.16,13c4.67,0,8.3-2.23,11.34-6.08l11,9.86c-5.11,6.67-13.12,10.38-23.27,10.38-16.68,0-28.91-11.2-28.91-27.13"/><rect class="cls-2" x="388.14" y="229.76" width="17.49" height="51.89"/><path class="cls-2" d="M449.44,272.61H429.72l-3.48,9H408.45l22.68-51.89h17.2L471,281.65H452.92ZM444.62,260l-5-13-5,13Z"/><path class="cls-1" d="M283.15,82.22c0-6.33,4.7-10.48,10.59-10.48s10.6,4.15,10.6,10.48a10.6,10.6,0,1,1-21.19,0"/><polygon class="cls-2" points="34.78 323.27 34.78 324.77 19.07 324.77 19.07 302 34.3 302 34.3 303.5 20.73 303.5 20.73 312.48 32.86 312.48 32.86 313.94 20.73 313.94 20.73 323.27 34.78 323.27"/><polygon class="cls-2" points="50.58 302.01 52.24 302.01 52.24 323.27 65.34 323.27 65.34 324.77 50.58 324.77 50.58 302.01"/><path class="cls-2" d="M111.54,318.36H98.34l-2.89,6.41H93.66L104.13,302h1.66l10.47,22.76h-1.79Zm-.61-1.39-6-13.14L99,317Z"/><rect class="cls-2" x="130.14" y="302.01" width="1.66" height="22.76"/><path class="cls-2" d="M165.29,324.77l-5.43-7.61a15.74,15.74,0,0,1-2.21.16h-6.51v7.45h-1.66V302h8.17c5.72,0,9.17,2.86,9.17,7.67a7,7,0,0,1-5.33,7.12l5.69,8Zm-7.64-8.91c4.87,0,7.48-2.28,7.48-6.18s-2.61-6.18-7.48-6.18h-6.51v12.36Z"/><polygon class="cls-2" points="198.35 323.27 198.35 324.77 182.65 324.77 182.65 302 197.87 302 197.87 303.5 184.31 303.5 184.31 312.48 196.44 312.48 196.44 313.94 184.31 313.94 184.31 323.27 198.35 323.27"/><path class="cls-2" d="M232.26,302h9c7.22,0,12.1,4.75,12.1,11.38s-4.88,11.38-12.1,11.38h-9Zm8.88,21.26c6.44,0,10.57-4.09,10.57-9.88s-4.13-9.89-10.57-9.89h-7.22v19.77Z"/><polygon class="cls-2" points="284.58 323.27 284.58 324.77 268.87 324.77 268.87 302 284.09 302 284.09 303.5 270.53 303.5 270.53 312.48 282.66 312.48 282.66 313.94 270.53 313.94 270.53 323.27 284.58 323.27"/><polygon class="cls-2" points="322.85 303.5 314.65 303.5 314.65 302 332.7 302 332.7 303.5 324.5 303.5 324.5 324.77 322.85 324.77 322.85 303.5"/><path class="cls-2" d="M344,313.39c0-6.6,5-11.55,11.84-11.55s11.84,4.91,11.84,11.55-5.08,11.54-11.84,11.54S344,320,344,313.39m22,0a10.17,10.17,0,1,0-10.15,10,9.83,9.83,0,0,0,10.15-10"/><path class="cls-2" d="M383.22,302h9c7.22,0,12.1,4.75,12.1,11.38s-4.88,11.38-12.1,11.38h-9Zm8.88,21.26c6.44,0,10.57-4.09,10.57-9.88s-4.13-9.89-10.57-9.89h-7.22v19.77Z"/><path class="cls-2" d="M417.65,313.39c0-6.6,5-11.55,11.84-11.55s11.84,4.91,11.84,11.55-5.07,11.54-11.84,11.54-11.84-4.94-11.84-11.54m22,0a10.16,10.16,0,1,0-10.14,10,9.83,9.83,0,0,0,10.14-10"/><path class="cls-2" d="M454.52,321.84l.75-1.23a10.84,10.84,0,0,0,7.51,2.86c4.56,0,6.57-2,6.57-4.45,0-6.84-14.21-2.74-14.21-11.13,0-3.22,2.47-6.05,8.06-6.05a12.3,12.3,0,0,1,6.87,2.05l-.62,1.34a11.2,11.2,0,0,0-6.25-1.92c-4.42,0-6.4,2.05-6.4,4.55,0,6.83,14.21,2.8,14.21,11.06,0,3.21-2.57,6-8.2,6-3.38,0-6.63-1.26-8.29-3.09"/><rect class="cls-3" x="62.25" y="13.98" width="19.9" height="79.93"/><rect class="cls-3" x="20.8" y="48.49" width="19.9" height="45.42"/><rect class="cls-3" x="402.21" y="13.98" width="19.9" height="79.93"/><rect class="cls-3" x="443.66" y="48.49" width="19.9" height="45.42"/></svg>