<svg id="Capa_1" data-name="Capa 1" xmlns="http://www.w3.org/2000/svg" viewBox="0 0 416 416"><defs><style>.cls-1{fill:#fff;}</style></defs><title>twitter</title><path class="cls-1" d="M218.55,369H198.49a11.08,11.08,0,0,0-2.08-.51,146,146,0,0,1-46.75-10.78q-81.6-34.35-99.12-121.27c-1.19-5.91-1.71-11.95-2.54-17.93V198.45c.19-.91.42-1.81.55-2.73,1.08-7.22,1.72-14.53,3.26-21.65C71,86,160.19,30.57,247.18,52.63,330.7,73.8,382.35,155.18,365.93,239.73c-12.56,64.67-64.82,115.76-129.77,126.81C230.32,367.53,224.42,368.19,218.55,369ZM167.09,256.63c-18.42,13.8-38.65,19.31-61,17.83a16,16,0,0,0,3.25,2.4c24,13.75,49.82,18.59,77.24,15.15,25.68-3.23,48.22-13.34,66.71-31.53,25.53-25.12,38.13-55.83,38-91.68a4.69,4.69,0,0,1,2-4.17,104.61,104.61,0,0,0,9.78-8.79c3.23-3.38,6.05-7.15,9.33-11.08L290,150.82l-.43-1c7.95-5.52,13.71-12.62,16.62-21.31-7.87,2.81-15.69,5.64-23.54,8.37a4.16,4.16,0,0,1-4.75-1,42.2,42.2,0,0,0-48.46-7.32,42.92,42.92,0,0,0-23.29,43.27c.16,1.41.37,2.81.6,4.59C171,173.83,142,159,119,131.84a42,42,0,0,0-4.79,30.5c2.3,10.69,8.12,19.2,16.9,25.81l-.6,1.08-17.37-4.83c-.88,18.3,11.33,33.78,32.88,41.43a7.17,7.17,0,0,1-1.85.68c-5.27.31-10.55.57-15.79.84C130.44,240.83,145.62,252.6,167.09,256.63Z"/></svg>