<svg id="Capa_1" data-name="Capa 1" xmlns="http://www.w3.org/2000/svg" viewBox="0 0 345.31 345.31"><title>twN</title><path d="M186.42,334.28h-22a21.72,21.72,0,0,0-2.73-.57A155.28,155.28,0,0,1,121,325c-71.68-25.47-116-98.27-105.46-173.53,4.08-29.1,14.88-55.59,33.67-78.26C87.79,26.67,137.5,7,197.39,14c26.76,3.12,51.1,13.36,72.73,29.49C304.41,69,325.71,102.85,333.52,145c1,5.64,1.69,11.35,2.52,17v22.63c-.21.9-.5,1.79-.62,2.7-.72,5.28-1.1,10.63-2.13,15.84-7.11,36-24.14,66.39-51.61,90.73a157.6,157.6,0,0,1-82.32,38.48C195.05,333.07,190.73,333.66,186.42,334.28Zm-114-95c.26.56.3.79.43.87,1,.63,1.92,1.27,2.91,1.84a119.28,119.28,0,0,0,53.27,15.9c23.18,1.29,45.48-2.44,65.66-14C237,219.49,257,182,258,133.79a5.27,5.27,0,0,1,2.29-4.67,79.58,79.58,0,0,0,18.28-19.43l-22.63,6.13-.39-.87c8.38-5.52,14.4-12.83,17.37-21.66C265,96,257,98.83,248.94,101.68c-1.81.64-3,.13-4.37-1.2a42.62,42.62,0,0,0-48-7.5,43.12,43.12,0,0,0-23.9,42.47c.16,1.82.44,3.64.7,5.8-35.82-2.62-64.92-17.43-87.84-44.49-4,5.78-6.53,15.55-5.91,23.51,1.07,13.66,7.07,24.69,18.29,32.85l-.54,1L79.4,149.3a40.91,40.91,0,0,0,9.26,26.17c6.12,7.77,14.22,12.57,23.77,15.09l-.14.93H94.07c7.22,18.33,20.23,27.93,39.75,30C115.29,235.44,95,241,72.44,239.23Z"/></svg>