<svg id="Capa_1" data-name="Capa 1" xmlns="http://www.w3.org/2000/svg" viewBox="0 0 286.93 288"><defs><style>.cls-1{fill:#fff;}</style></defs><title>vivo</title><path class="cls-1" d="M158.69,90.88h66.84c11,0,18.75,7.71,18.76,18.75q0,52.91,0,105.81c0,11.4-7.65,19.06-19.1,19.11-9.68,0-19.36,0-29,0h-130c-9.05,0-15.72-4.4-18.44-12.12a19,19,0,0,1-1.08-6.37q0-53.34,0-106.66c0-10.74,7.85-18.51,18.57-18.52h67l.37-.49A17.41,17.41,0,0,1,130.9,89c-8.8-8.75-17.56-17.55-26.41-26.25-1.23-1.21-1.12-1.87.07-2.9a38.21,38.21,0,0,0,3.71-3.71c1-1.08,1.56-1.11,2.6,0,4.65,4.78,9.4,9.45,14.11,14.16,6.29,6.3,12.62,12.56,18.86,18.92,1.22,1.24,1.84,1.47,3.21.07,10.89-11,21.91-21.92,32.8-32.94,1.29-1.3,2-1.23,3.05.07a30.4,30.4,0,0,0,3.69,3.75c1.1,1,.88,1.51-.05,2.44q-13.44,13.33-26.8,26.75c-.39.39-.85.73-1.27,1.09Zm-91.91,18c-1.76,0-2.15.43-2.15,2.16q.09,51.65,0,103.3c0,1.71.35,2.2,2.14,2.2q78.69-.09,157.37,0c1.79,0,2.15-.49,2.14-2.2q-.07-51.65,0-103.3c0-1.74-.39-2.17-2.15-2.16q-39.35.09-78.68,0T66.78,108.88Z"/><path class="cls-1" d="M118.69,126.81l62.79,35.88-62.79,35.88Z"/></svg>