<svg id="Capa_1" data-name="Capa 1" xmlns="http://www.w3.org/2000/svg" viewBox="0 0 323 329"><title>whatsapp</title><path d="M153.47,16h17.47c.85.17,1.69.39,2.53.52,6.81,1,13.7,1.59,20.4,3.07,64.37,14.17,111.57,70.9,113.75,136.8,1.11,33.63-8,64.38-28.26,91.31-28.37,37.76-66.48,57.72-113.74,59.41-25,.92-48.74-4.85-70.88-16.49a6.25,6.25,0,0,0-5.69-.35q-30,11.39-60.17,22.52a15.36,15.36,0,0,1-7,1.17c-6.08-.86-8.88-6.81-6.49-13.24q10.94-29.3,22-58.49a6.88,6.88,0,0,0-.56-6.71,141.4,141.4,0,0,1-20-65.3c-1.57-26.95,3.68-52.61,16.55-76.33Q67.2,31.82,136.79,18.33C142.3,17.26,147.91,16.76,153.47,16ZM196.8,232.08c13.8-.75,25.33-6.1,32.78-18.66,2.93-4.95,4.44-10.22,1.4-15.71-6.54-11.8-16.51-19.31-29.43-22.9-4.65-1.29-8.74-.05-12.12,3.64a53,53,0,0,1-6.3,5.58c-6.69,5.21-11.89,5.52-18.3-.15-8.42-7.43-16.35-15.41-24.29-23.37-2.29-2.3-4-5.23-5.73-8-2.05-3.25-2.55-6.86-.38-10.17a55.88,55.88,0,0,1,7.75-10c4.66-4.45,5.34-9.4,3.44-15.11-3.2-9.68-9.19-17.38-17-23.82-6.72-5.57-13.79-6-21.57-2-12.23,6.38-19,18.45-18.2,33.16A72.05,72.05,0,0,0,97.61,155a164.53,164.53,0,0,0,68.3,68.29C175.38,228.37,185.49,231.76,196.8,232.08Z"/></svg>