<svg id="Capa_1" data-name="Capa 1" xmlns="http://www.w3.org/2000/svg" viewBox="0 0 345.31 345.31"><defs><style>.cls-1{fill:#fff;}</style></defs><title>ybB</title><path class="cls-1" d="M186.26,333.64H163.63c-3.71-.48-7.43-.91-11.13-1.46-29.18-4.31-55.48-15.41-78.37-34.06C43.2,272.9,23.85,240.67,16.56,201.35,15.5,195.61,14.85,189.8,14,184V161.39c.26-1.95.55-3.91.78-5.87,3-25.76,11.09-49.76,25.73-71.24C70.74,39.92,112.79,15.53,166.35,12c31.76-2.09,61.57,5.49,89.29,21.35,57.49,32.9,89.5,100.54,78.17,165.74-6.3,36.27-22.89,67.06-49.94,92a157.1,157.1,0,0,1-80.61,40C197.62,332.15,191.93,332.82,186.26,333.64Zm-6.45-89.93c19.82-1.08,43.86-2.16,67.87-3.8,13.28-.9,22-8.57,24.07-21.57a335.28,335.28,0,0,0,3.4-35.25,256.07,256.07,0,0,0-2.75-53.84c-1.76-11.17-7.46-19.26-18.66-22.48a57.35,57.35,0,0,0-12.37-1.94c-15-.87-30.1-1.76-45.16-2.15-31.32-.82-62.61-.47-93.81,2.72-13.37,1.36-22.13,8.69-24.28,21.85a323.4,323.4,0,0,0-3.37,34.63,258.7,258.7,0,0,0,2.79,54.47c2,12.7,9.61,20.88,21.23,22.93a121.87,121.87,0,0,0,15.57,1.89C134.73,242.08,155.14,242.77,179.81,243.71Z"/><path class="cls-1" d="M207.38,172.7,155,202.85V142.56Z"/></svg>