<svg id="Capa_1" data-name="Capa 1" xmlns="http://www.w3.org/2000/svg" viewBox="0 0 345.31 345.31"><title>ybN</title><path d="M183.88,333.64H161.25c-3.72-.48-7.43-.91-11.14-1.46-29.18-4.31-55.47-15.41-78.36-34.06-30.93-25.22-50.28-57.45-57.57-96.77-1.06-5.74-1.71-11.55-2.56-17.33V161.39c.27-1.95.56-3.91.78-5.87,3-25.76,11.09-49.76,25.73-71.24C68.36,39.92,110.41,15.53,164,12c31.77-2.09,61.58,5.49,89.3,21.35,57.49,32.9,89.49,100.54,78.17,165.74-6.3,36.27-22.89,67.06-49.94,92a157.14,157.14,0,0,1-80.61,40C195.24,332.15,189.55,332.82,183.88,333.64Zm-6.45-89.93c19.81-1.08,43.86-2.16,67.87-3.8,13.28-.9,22-8.57,24.07-21.57a335.28,335.28,0,0,0,3.4-35.25A256.07,256.07,0,0,0,270,129.25c-1.77-11.17-7.46-19.26-18.66-22.48A57.35,57.35,0,0,0,239,104.83c-15.05-.87-30.1-1.76-45.17-2.15-31.31-.82-62.6-.47-93.81,2.72-13.36,1.36-22.12,8.69-24.28,21.85a326,326,0,0,0-3.36,34.63,258.7,258.7,0,0,0,2.79,54.47c2,12.7,9.61,20.88,21.23,22.93A121.71,121.71,0,0,0,112,241.17C132.35,242.08,152.75,242.77,177.43,243.71Z"/><path d="M205,172.7l-52.37,30.15V142.56Z"/></svg>